<?xml version="1.0" encoding="UTF-8"?>
<svg viewBox="0 0 169 189" xmlns="http://www.w3.org/2000/svg">
<path d="m58.454 104.13-2.8199 1.22-11.27-7.86-3 1.66c-2.41 1.44-4.75 1.54-5.87 0.9l-0.2301 0.11c-1.74 0.76-2.77 0.08-3.12-0.74s-0.1499-2 1.5901-2.78l0.23-0.1c0.2099-1 1.12-2.68 4.67-3.67l3.27-1.05 2-13.59 2.82-1.23 2.19 12.59 8.06-2.76 1.22-3.23 2.24-0.83 0.16 3 0.7999-0.07 0.7301 1.67-0.6001 0.59 2.12 2.2-2.1399 1.07-3.18-1.32-7.53 4 7.6599 10.22zm-0.2099-14.95 3.2 1.33 1-0.52-1.94-2 0.73-0.74-0.3401-0.79-1 0.09-0.1499-2.8-1.09 0.4-1.22 3.24-9.12 3.11-2.1701-12.51-1.69 0.73-1.9499 13.64-3.69 1.18c-3.44 0.95-4.12 2.49-4.22 3.32v0.21l-0.2001 0.07c-0.127 0.0362-0.2508 0.083-0.37 0.14-1.07 0.46-1.5499 1.19-1.2399 1.89s1.1599 0.86 2.2299 0.39c0.1204-0.0486 0.2374-0.1054 0.3501-0.17l0.19-0.11 0.18 0.13c0.73 0.54 2.86 0.64 5.32-0.82l3.36-1.88 11.3 7.89 1.69-0.73-7.66-10.14 8.5-4.55z" fill="#999"/>
<path d="m155.23 188.06c0.054 0 0.108-0.013 0.155-0.039 0.048-0.027 0.087-0.065 0.115-0.111 0.36-0.547 0.694-1.097 1-1.65 0.046-0.074 0.061-0.162 0.042-0.246s-0.07-0.157-0.142-0.204c-0.074-0.045-0.163-0.058-0.247-0.038-0.084 0.021-0.157 0.074-0.203 0.148-0.34 0.55-0.68 1.09-1 1.64-0.024 0.035-0.041 0.075-0.049 0.116-9e-3 0.042-9e-3 0.086-1e-3 0.128 9e-3 0.041 0.025 0.081 0.049 0.117 0.024 0.035 0.055 0.065 0.091 0.089 0.059 0.031 0.124 0.049 0.19 0.05zm2-3.32c0.057-1e-3 0.112-0.016 0.161-0.044s0.09-0.068 0.119-0.116c0.32-0.57 0.64-1.14 1-1.71 0.041-0.075 0.051-0.163 0.029-0.245-0.023-0.081-0.076-0.152-0.149-0.195-0.076-0.04-0.164-0.049-0.246-0.024-0.082 0.024-0.152 0.079-0.194 0.154-0.31 0.57-0.63 1.13-0.95 1.69-0.044 0.074-0.058 0.163-0.037 0.247s0.074 0.157 0.147 0.203c0.052 0.028 0.111 0.042 0.17 0.04h-0.05zm1.86-3.42c0.06-1e-3 0.119-0.018 0.17-0.05s0.093-0.077 0.12-0.13c0.3-0.58 0.59-1.17 0.87-1.75 0.019-0.039 0.03-0.08 0.032-0.122 3e-3 -0.042-3e-3 -0.085-0.017-0.125s-0.036-0.077-0.064-0.108c-0.028-0.032-0.062-0.057-0.101-0.075-0.038-0.019-0.079-0.03-0.121-0.033-0.043-2e-3 -0.085 4e-3 -0.125 0.018s-0.077 0.035-0.108 0.064c-0.032 0.028-0.058 0.062-0.076 0.101-0.28 0.58-0.57 1.16-0.87 1.74-0.018 0.038-0.029 0.079-0.032 0.121-2e-3 0.042 3e-3 0.085 0.017 0.125s0.036 0.077 0.064 0.108c0.029 0.032 0.063 0.057 0.101 0.076 0.027 0.02 0.058 0.034 0.091 0.041 0.033 6e-3 0.067 6e-3 0.099-1e-3h-0.05zm1.69-3.52c0.063-1e-3 0.124-0.02 0.177-0.053 0.053-0.034 0.096-0.081 0.123-0.137l0.78-1.79c0.033-0.081 0.033-0.172-1e-3 -0.253-0.034-0.08-0.098-0.144-0.179-0.177-0.079-0.03-0.168-0.028-0.246 5e-3 -0.078 0.034-0.14 0.096-0.174 0.175-0.25 0.59-0.51 1.18-0.77 1.78-0.018 0.037-0.028 0.079-0.03 0.121s5e-3 0.084 0.02 0.123 0.038 0.075 0.067 0.105 0.064 0.054 0.103 0.071c0.056 0.027 0.119 0.038 0.18 0.03h-0.05zm1.51-3.59c0.064-1e-3 0.127-0.02 0.18-0.056 0.053-0.035 0.095-0.086 0.12-0.144 0.24-0.62 0.47-1.23 0.7-1.84 0.014-0.041 0.02-0.083 0.018-0.125-2e-3 -0.043-0.013-0.084-0.032-0.122-0.018-0.039-0.044-0.073-0.076-0.101s-0.069-0.049-0.11-0.062c-0.079-0.027-0.166-0.022-0.242 0.013-0.077 0.036-0.136 0.099-0.168 0.177-0.22 0.61-0.45 1.21-0.69 1.82-0.03 0.079-0.028 0.167 6e-3 0.246 0.033 0.078 0.096 0.14 0.174 0.174l0.12 0.02zm1.34-3.66c0.067-1e-3 0.132-0.023 0.186-0.062 0.053-0.04 0.093-0.095 0.114-0.158 0.22-0.62 0.42-1.24 0.61-1.86 0.026-0.083 0.018-0.172-0.021-0.248-0.04-0.077-0.107-0.135-0.189-0.162-0.082-0.026-0.171-0.018-0.247 0.021-0.077 0.039-0.135 0.107-0.163 0.189-0.19 0.62-0.39 1.23-0.6 1.85-0.025 0.082-0.017 0.171 0.022 0.247 0.039 0.077 0.107 0.135 0.188 0.163l0.1 0.02zm1.16-3.72c0.071-2e-3 0.139-0.026 0.195-0.069 0.056-0.044 0.096-0.104 0.115-0.171 0.18-0.63 0.36-1.26 0.52-1.88 0.022-0.084 0.01-0.173-0.033-0.247-0.043-0.075-0.114-0.13-0.197-0.153-0.04-0.011-0.083-0.013-0.124-8e-3 -0.042 6e-3 -0.082 0.02-0.118 0.042-0.037 0.021-0.068 0.049-0.094 0.083-0.025 0.034-0.043 0.072-0.054 0.113-0.17 0.62-0.34 1.25-0.52 1.87-0.012 0.04-0.016 0.083-0.011 0.125 4e-3 0.042 0.017 0.083 0.037 0.121 0.021 0.037 0.049 0.07 0.082 0.096 0.033 0.027 0.071 0.046 0.112 0.058l0.09 0.02zm1-3.77c0.072-3e-3 0.141-0.028 0.197-0.073 0.056-0.046 0.096-0.108 0.113-0.177 0.15-0.64 0.3-1.28 0.43-1.91 0.011-0.041 0.012-0.084 6e-3 -0.125-7e-3 -0.042-0.022-0.081-0.044-0.117-0.023-0.036-0.052-0.066-0.087-0.09-0.034-0.024-0.073-0.04-0.115-0.048-0.041-0.011-0.084-0.013-0.126-6e-3 -0.042 6e-3 -0.083 0.021-0.119 0.043-0.037 0.023-0.068 0.052-0.093 0.087s-0.042 0.074-0.052 0.116c-0.13 0.63-0.28 1.26-0.43 1.9-0.018 0.083-3e-3 0.17 0.042 0.243 0.044 0.073 0.116 0.125 0.198 0.147l0.08 0.01zm0.82-3.82c0.076 1e-3 0.149-0.024 0.208-0.072 0.058-0.048 0.098-0.114 0.112-0.188 0.12-0.64 0.24-1.28 0.35-1.92 0.015-0.084-4e-3 -0.17-0.053-0.239-0.049-0.07-0.123-0.117-0.207-0.131-0.042-9e-3 -0.085-9e-3 -0.127-1e-3 -0.042 9e-3 -0.082 0.026-0.118 0.05-0.035 0.024-0.066 0.055-0.089 0.091-0.023 0.037-0.039 0.077-0.046 0.12-0.11 0.63-0.22 1.27-0.35 1.91-8e-3 0.042-9e-3 0.085 0 0.127 8e-3 0.042 0.025 0.082 0.05 0.118 0.024 0.035 0.055 0.065 0.091 0.089 0.036 0.023 0.077 0.038 0.119 0.046h0.06zm0.66-3.84c0.078 3e-3 0.153-0.023 0.213-0.073 0.059-0.05 0.097-0.121 0.107-0.197 0.1-0.65 0.19-1.3 0.27-1.94 6e-3 -0.043 3e-3 -0.085-8e-3 -0.126s-0.03-0.08-0.056-0.113c-0.026-0.034-0.059-0.062-0.096-0.082-0.037-0.021-0.078-0.035-0.12-0.039-0.042-8e-3 -0.085-6e-3 -0.127 5e-3 -0.041 0.01-0.08 0.029-0.114 0.056-0.034 0.026-0.062 0.059-0.082 0.097-0.021 0.037-0.033 0.079-0.037 0.122-0.08 0.626-0.17 1.266-0.27 1.92-0.011 0.084 0.01 0.17 0.061 0.239 0.05 0.069 0.125 0.116 0.209 0.131h0.05zm0.49-3.87c0.081 2e-3 0.159-0.026 0.219-0.081 0.06-0.054 0.096-0.129 0.101-0.209 0.07-0.65 0.14-1.3 0.19-1.94 6e-3 -0.086-0.022-0.171-0.078-0.237-0.057-0.065-0.136-0.106-0.222-0.113-0.042-6e-3 -0.084-3e-3 -0.124 9e-3 -0.041 0.012-0.078 0.032-0.11 0.06-0.033 0.027-0.059 0.061-0.077 0.099s-0.028 0.079-0.029 0.122c-0.06 0.64-0.12 1.29-0.19 1.94-4e-3 0.042 0 0.084 0.013 0.124 0.012 0.041 0.032 0.078 0.059 0.111s0.06 0.059 0.098 0.079c0.037 0.02 0.078 0.032 0.12 0.036h0.03zm0.33-3.88c0.082 0 0.16-0.031 0.22-0.087 0.059-0.056 0.095-0.132 0.1-0.213 0-0.67 0.08-1.32 0.1-2 3e-3 -0.043-3e-3 -0.086-0.017-0.127-0.014-0.04-0.037-0.077-0.066-0.109s-0.064-0.058-0.103-0.075c-0.039-0.018-0.081-0.028-0.124-0.029-0.084 3e-3 -0.164 0.037-0.226 0.093-0.062 0.057-0.102 0.133-0.114 0.217 0 0.64 0 1.29-0.09 1.94-5e-3 0.085 0.023 0.17 0.079 0.236 0.056 0.065 0.136 0.106 0.221 0.114l0.02 0.04zm0.15-3.9c0.085 0 0.167-0.034 0.227-0.094s0.093-0.142 0.093-0.226v-1.36-0.59c0-0.085-0.033-0.167-0.093-0.227s-0.142-0.093-0.227-0.093-0.166 0.033-0.226 0.093-0.094 0.142-0.094 0.227v0.59 1.35c-1e-3 0.042 6e-3 0.085 0.022 0.125 0.015 0.04 0.039 0.077 0.068 0.107 0.03 0.031 0.066 0.056 0.105 0.072 0.04 0.017 0.082 0.026 0.125 0.026zm0-3.9c0.043 0 0.086-9e-3 0.125-0.026 0.04-0.016 0.075-0.041 0.105-0.072 0.03-0.03 0.053-0.067 0.069-0.107 0.015-0.04 0.023-0.083 0.021-0.125 0-0.67-0.06-1.32-0.09-2-7e-3 -0.086-0.048-0.166-0.114-0.222-0.065-0.056-0.15-0.084-0.236-0.078-0.042 2e-3 -0.083 0.013-0.121 0.031-0.038 0.019-0.071 0.045-0.099 0.076-0.028 0.032-0.05 0.069-0.063 0.108-0.014 0.04-0.019 0.082-0.017 0.125 0 0.63 0.07 1.28 0.09 1.94-4e-3 0.047 1e-3 0.094 0.017 0.139 0.016 0.044 0.042 0.085 0.075 0.118 0.034 0.034 0.074 0.059 0.119 0.075s0.092 0.022 0.139 0.018h-0.02zm-0.23-3.89c0.042-4e-3 0.083-0.016 0.121-0.036 0.037-0.02 0.07-0.046 0.097-0.079s0.047-0.07 0.06-0.111c0.012-0.04 0.016-0.082 0.012-0.124-0.06-0.667-0.13-1.334-0.21-2-3e-3 -0.043-0.016-0.085-0.036-0.122-0.02-0.038-0.048-0.071-0.082-0.097-0.034-0.027-0.073-0.046-0.115-0.056-0.041-0.011-0.084-0.013-0.127-5e-3 -0.084 0.012-0.16 0.056-0.212 0.123s-0.076 0.152-0.068 0.237c0.08 0.61 0.15 1.26 0.21 1.93-4e-3 0.049 4e-3 0.098 0.022 0.144s0.047 0.087 0.084 0.12 0.081 0.057 0.128 0.07c0.048 0.013 0.098 0.015 0.146 6e-3h-0.03zm-0.48-3.87c0.084-0.015 0.158-0.062 0.207-0.132 0.049-0.069 0.068-0.155 0.053-0.238l-0.06-0.39c-0.09-0.51-0.19-1-0.29-1.54-8e-3 -0.042-0.025-0.081-0.048-0.116-0.024-0.035-0.054-0.065-0.09-0.089-0.035-0.023-0.075-0.039-0.116-0.047-0.042-8e-3 -0.084-7e-3 -0.126 2e-3 -0.042 7e-3 -0.082 0.022-0.118 0.046-0.036 0.023-0.066 0.053-0.09 0.089-0.023 0.036-0.039 0.076-0.046 0.118-8e-3 0.042-6e-3 0.085 4e-3 0.127 0.1 0.51 0.19 1 0.28 1.52l0.07 0.38c5e-3 0.045 0.019 0.088 0.041 0.127 0.023 0.039 0.054 0.073 0.091 0.098 0.038 0.026 0.08 0.043 0.124 0.051 0.045 8e-3 0.091 5e-3 0.134-6e-3h-0.02zm-0.77-3.82h0.07c0.041-9e-3 0.081-0.025 0.115-0.049 0.035-0.024 0.064-0.054 0.087-0.09 0.022-0.036 0.037-0.075 0.044-0.117 6e-3 -0.041 5e-3 -0.084-6e-3 -0.124-0.15-0.64-0.3-1.27-0.47-1.91-0.011-0.041-0.031-0.08-0.057-0.113-0.027-0.033-0.059-0.061-0.097-0.081-0.037-0.021-0.078-0.034-0.12-0.038-0.042-5e-3 -0.085-1e-3 -0.126 0.012-0.04 0.01-0.079 0.028-0.112 0.054-0.034 0.025-0.062 0.057-0.084 0.093-0.021 0.036-0.035 0.076-0.041 0.118-6e-3 0.041-3e-3 0.084 7e-3 0.125 0.17 0.63 0.33 1.25 0.47 1.88 0.021 0.072 0.066 0.136 0.128 0.18s0.137 0.065 0.212 0.06h-0.02zm-1-3.76h0.09c0.041-0.012 0.079-0.031 0.113-0.058 0.033-0.026 0.061-0.059 0.081-0.096 0.021-0.038 0.033-0.079 0.038-0.121 4e-3 -0.042 1e-3 -0.085-0.012-0.125-0.19-0.63-0.39-1.25-0.6-1.87-0.013-0.041-0.035-0.078-0.063-0.11s-0.062-0.058-0.1-0.076c-0.038-0.019-0.079-0.03-0.122-0.032-0.042-3e-3 -0.085 3e-3 -0.125 0.018-0.04 0.013-0.077 0.034-0.109 0.062s-0.058 0.062-0.077 0.101c-0.018 0.038-0.029 0.079-0.031 0.122-3e-3 0.042 3e-3 0.084 0.017 0.125 0.21 0.61 0.4 1.23 0.59 1.85 0.024 0.064 0.068 0.12 0.125 0.158 0.058 0.037 0.126 0.056 0.195 0.052h-0.01zm-1.25-3.7c0.036 9e-3 0.074 9e-3 0.11 0 0.08-0.03 0.144-0.089 0.18-0.166s0.039-0.165 0.01-0.244c-0.23-0.61-0.47-1.22-0.73-1.82-0.015-0.04-0.038-0.076-0.068-0.107-0.029-0.03-0.065-0.055-0.104-0.072-0.039-0.016-0.081-0.025-0.124-0.026-0.042 0-0.084 8e-3 -0.124 0.025-0.039 0.016-0.074 0.04-0.103 0.07-0.03 0.03-0.053 0.065-0.069 0.104s-0.024 0.081-0.023 0.123c0 0.042 9e-3 0.084 0.025 0.123 0.25 0.6 0.49 1.2 0.71 1.81 0.03 0.058 0.076 0.106 0.133 0.138s0.122 0.047 0.187 0.042h-0.01zm-1.47-3.54c0.046 9e-3 0.094 9e-3 0.14 0 0.078-0.037 0.137-0.103 0.167-0.183s0.028-0.169-7e-3 -0.247c-0.28-0.59-0.56-1.18-0.86-1.77-0.04-0.074-0.107-0.13-0.187-0.156s-0.167-0.02-0.243 0.016c-0.078 0.038-0.137 0.106-0.165 0.189-0.028 0.082-0.023 0.172 0.015 0.251 0.3 0.57 0.58 1.15 0.85 1.74 0.029 0.051 0.071 0.093 0.122 0.122 0.051 0.028 0.11 0.041 0.168 0.038zm-1.76-3.48c0.049 0.013 0.101 0.013 0.15 0 0.038-0.02 0.072-0.048 0.099-0.081s0.047-0.071 0.059-0.112 0.016-0.084 0.011-0.127c-4e-3 -0.042-0.018-0.083-0.039-0.12-0.32-0.57-0.65-1.14-1-1.69-0.02-0.038-0.048-0.07-0.082-0.096s-0.073-0.045-0.114-0.055-0.084-0.012-0.126-5e-3 -0.082 0.022-0.118 0.046c-0.036 0.021-0.067 0.05-0.093 0.083-0.025 0.034-0.043 0.073-0.053 0.114s-0.012 0.083-6e-3 0.125c6e-3 0.041 0.02 0.081 0.042 0.118 0.34 0.55 0.66 1.11 1 1.68 0.033 0.027 0.072 0.048 0.113 0.06s0.085 0.015 0.127 0.01l0.03 0.05zm-2-3.33c0.059 0.017 0.122 0.017 0.18 0 0.036-0.024 0.067-0.054 0.091-0.089 0.024-0.036 0.041-0.076 0.049-0.117 9e-3 -0.042 9e-3 -0.086 0-0.128-9e-3 -0.041-0.025-0.081-0.05-0.116-0.37-0.54-0.74-1.08-1.13-1.61-0.051-0.068-0.127-0.113-0.211-0.126s-0.169 7e-3 -0.239 0.056c-0.067 0.051-0.112 0.127-0.125 0.211-0.013 0.083 7e-3 0.169 0.055 0.239 0.38 0.52 0.75 1.05 1.11 1.59 0.064 0.037 0.138 0.051 0.21 0.04l0.06 0.05zm-44-2.21h0.41c0.042-3e-3 0.083-0.014 0.121-0.032 0.038-0.019 0.072-0.045 0.1-0.076 0.028-0.032 0.049-0.069 0.063-0.108 0.013-0.04 0.019-0.082 0.016-0.124-1e-3 -0.043-0.011-0.085-0.029-0.123-0.018-0.039-0.044-0.073-0.076-0.101-0.031-0.029-0.069-0.05-0.109-0.063-0.041-0.013-0.083-0.018-0.126-0.013-0.382 0.035-0.767 0.035-1.15 0-0.229-0.029-0.456-0.073-0.68-0.13-0.083-0.022-0.172-0.01-0.247 0.033-0.074 0.043-0.129 0.114-0.153 0.197-0.01 0.041-0.012 0.084-6e-3 0.126 7e-3 0.042 0.022 0.083 0.044 0.119s0.052 0.068 0.087 0.093c0.034 0.025 0.074 0.042 0.115 0.052 0.253 0.07 0.51 0.12 0.77 0.15 0.248-5e-3 0.495-0.022 0.74-0.05l0.11 0.05zm2.3-0.39h0.1c0.65-0.229 1.255-0.567 1.79-1 0.06-0.062 0.094-0.145 0.094-0.23 0-0.086-0.034-0.169-0.094-0.23-0.03-0.031-0.065-0.056-0.105-0.073-0.039-0.016-0.082-0.025-0.125-0.025s-0.085 9e-3 -0.125 0.025c-0.039 0.017-0.075 0.042-0.105 0.073-0.478 0.381-1.015 0.682-1.59 0.89-0.04 0.013-0.077 0.034-0.109 0.062s-0.058 0.062-0.077 0.101c-0.018 0.038-0.029 0.079-0.031 0.122-3e-3 0.042 3e-3 0.084 0.017 0.125 0.032 0.035 0.07 0.063 0.113 0.082s0.09 0.028 0.137 0.028l0.11 0.05zm39.45-0.54c0.073 0 0.144-0.024 0.2-0.07 0.06-0.062 0.094-0.145 0.094-0.23 0-0.086-0.034-0.169-0.094-0.23-0.41-0.51-0.84-1-1.26-1.5-0.061-0.06-0.144-0.094-0.23-0.094s-0.168 0.034-0.23 0.094c-0.06 0.061-0.093 0.144-0.093 0.23 0 0.085 0.033 0.168 0.093 0.23 0.42 0.48 0.84 1 1.24 1.48 0.053 0.027 0.111 0.041 0.17 0.04l0.11 0.05zm-45.06-0.05c0.053-2e-3 0.105-0.015 0.151-0.04 0.047-0.024 0.088-0.058 0.119-0.1 0.046-0.074 0.061-0.162 0.042-0.246s-0.07-0.157-0.142-0.204c-0.516-0.343-0.983-0.753-1.39-1.22-0.06-0.06-0.14-0.093-0.225-0.093-0.084 0-0.165 0.033-0.225 0.093-0.06 0.061-0.093 0.144-0.093 0.23 0 0.085 0.033 0.168 0.093 0.23 0.444 0.517 0.959 0.968 1.53 1.34 0.01 3e-3 0.02 7e-3 0.03 0.01h0.11zm8.53-1.85c0.058-2e-3 0.114-0.018 0.163-0.048s0.089-0.072 0.117-0.122c0.33-0.623 0.544-1.301 0.63-2 6e-3 -0.043 3e-3 -0.085-8e-3 -0.126s-0.03-0.08-0.056-0.113c-0.026-0.034-0.059-0.062-0.096-0.082-0.037-0.021-0.078-0.035-0.12-0.039-0.083-0.012-0.168 0.01-0.235 0.061-0.068 0.05-0.112 0.125-0.125 0.209-0.083 0.607-0.269 1.195-0.55 1.74-0.021 0.037-0.034 0.078-0.039 0.12-5e-3 0.043-1e-3 0.086 0.011 0.127s0.033 0.079 0.06 0.112 0.06 0.061 0.098 0.081c0.013 0.01 0.026 0.02 0.04 0.03l0.11 0.05zm33.95-1c0.086 0 0.168-0.032 0.23-0.09 0.06-0.062 0.094-0.145 0.094-0.23 0-0.086-0.034-0.169-0.094-0.23-0.46-0.47-0.93-0.93-1.4-1.38-0.061-0.06-0.144-0.094-0.23-0.094s-0.168 0.034-0.23 0.094c-0.059 0.059-0.092 0.14-0.092 0.225 0 0.084 0.033 0.165 0.092 0.225 0.46 0.44 0.92 0.9 1.37 1.36 0.046 0.026 0.098 0.04 0.15 0.04l0.11 0.08zm-45 0c0.05 9e-3 0.101 9e-3 0.15 0 0.075-0.043 0.13-0.111 0.156-0.193s0.021-0.17-0.016-0.247c-0.281-0.557-0.486-1.149-0.61-1.76-9e-3 -0.042-0.027-0.081-0.052-0.116-0.024-0.035-0.056-0.064-0.092-0.087-0.037-0.022-0.077-0.037-0.119-0.043-0.042-7e-3 -0.085-5e-3 -0.127 6e-3 -0.041 8e-3 -0.081 0.024-0.116 0.048s-0.065 0.054-0.088 0.089c-0.023 0.036-0.039 0.075-0.047 0.117-8e-3 0.041-7e-3 0.084 1e-3 0.126 0.145 0.661 0.37 1.302 0.67 1.91 0.048 0.03 0.104 0.047 0.16 0.05l0.13 0.1zm42.19-2.65c0.046-1e-3 0.091-0.011 0.132-0.03 0.042-0.019 0.078-0.046 0.108-0.08 0.06-0.062 0.094-0.145 0.094-0.23 0-0.086-0.034-0.169-0.094-0.23l-0.6-0.5-0.93-0.7305c-0.069-0.0525-0.156-0.0757-0.242-0.0644-0.086 0.0112-0.164 0.0559-0.218 0.1249-0.049 0.068-0.071 0.153-0.059 0.236 0.011 0.084 0.054 0.16 0.119 0.214l0.92 0.72 0.59 0.5c0.018-9e-3 0.035-0.019 0.05-0.03l0.13 0.1zm-30.52-0.09c0.086-0.011 0.165-0.054 0.219-0.121 0.054-0.068 0.08-0.153 0.071-0.239-0.076-0.679-0.217-1.3486-0.42-2.0005-0.011-0.0409-0.031-0.0791-0.057-0.1124-0.027-0.0333-0.059-0.0609-0.097-0.0814-0.037-0.0205-0.078-0.0334-0.12-0.0379s-0.085-5e-4 -0.126 0.0117c-0.041 0.0113-0.079 0.0309-0.111 0.0575-0.033 0.0266-0.061 0.0596-0.08 0.0971-0.02 0.0375-0.032 0.0786-0.035 0.1208s2e-3 0.0846 0.016 0.1246c0.182 0.6045 0.312 1.2235 0.39 1.8505 0.014 0.054 0.041 0.103 0.08 0.144 0.038 0.04 0.087 0.07 0.14 0.086l0.13 0.1zm-12.45-1c0.082 0 0.16-0.031 0.22-0.087 0.059-0.056 0.095-0.132 0.1-0.213 0.046-0.6154 0.188-1.2193 0.42-1.7905 0.017-0.0387 0.025-0.0803 0.026-0.1224 0-0.0421-8e-3 -0.0838-0.024-0.1228-0.015-0.039-0.039-0.0746-0.068-0.1046-0.03-0.0299-0.065-0.0538-0.104-0.0702-0.038-0.0164-0.08-0.0251-0.122-0.0255-0.042-3e-4 -0.084 0.0076-0.123 0.0234s-0.075 0.0391-0.105 0.0687c-0.029 0.0295-0.053 0.0647-0.07 0.1034-0.265 0.6365-0.424 1.3121-0.47 2.0005-4e-3 0.042 1e-3 0.086 0.014 0.127s0.034 0.079 0.062 0.111c0.028 0.033 0.062 0.06 0.101 0.079 0.038 0.019 0.08 0.03 0.123 0.033l0.02-0.01zm39.74-1.4105c0.053 9e-4 0.106-0.0114 0.153-0.0358 0.047-0.0245 0.087-0.0603 0.117-0.1042 0.048-0.0708 0.066-0.1572 0.051-0.2411-0.015-0.0838-0.062-0.1587-0.131-0.2089-0.54-0.37-1.1-0.73-1.65-1.07-0.074-0.0444-0.163-0.0578-0.247-0.0372s-0.157 0.0735-0.203 0.1472c-0.021 0.0361-0.036 0.0761-0.042 0.1178s-4e-3 0.0842 6e-3 0.1251 0.028 0.0793 0.053 0.1132c0.026 0.0338 0.057 0.0623 0.093 0.0839 0.547 0.34 1.087 0.69 1.62 1.05 0.053 0.0378 0.116 0.0587 0.18 0.06zm-28.5-1.45c0.043 0.0102 0.088 0.0102 0.13 0 0.079-0.0351 0.141-0.0998 0.173-0.1802s0.031-0.1701-3e-3 -0.2498c-0.25-0.57-0.54-1.17-0.87-1.77-0.02-0.0378-0.047-0.0713-0.08-0.0984-0.033-0.0272-0.071-0.0474-0.112-0.0595s-0.084-0.0159-0.127-0.0111c-0.042 0.0048-0.083 0.0181-0.121 0.039-0.074 0.0422-0.129 0.1117-0.154 0.1938-0.024 0.0821-0.015 0.1704 0.024 0.2462 0.32 0.58 0.61 1.16 0.85 1.72 0.024 0.0581 0.064 0.108 0.115 0.1435 0.052 0.0356 0.113 0.0552 0.175 0.0565v-0.03zm25.13-0.55c0.06 0.0014 0.118-0.0138 0.169-0.0438 0.052-0.03 0.093-0.0737 0.121-0.1262 0.04-0.0759 0.048-0.1642 0.024-0.2463s-0.079-0.1515-0.154-0.1937c-0.57-0.31-1.16-0.61-1.75-0.9-0.038-0.0186-0.079-0.0296-0.121-0.0321-0.043-0.0026-0.085 0.0033-0.125 0.0173-0.04 0.0139-0.077 0.0357-0.108 0.064-0.032 0.0283-0.058 0.0626-0.076 0.1008-0.018 0.0381-0.029 0.0794-0.032 0.1217-2e-3 0.0423 3e-3 0.0847 0.017 0.1247s0.036 0.0768 0.064 0.1083c0.029 0.0315 0.063 0.0572 0.101 0.0753 0.58 0.28 1.16 0.58 1.72 0.89 0.045 0.0272 0.098 0.0411 0.15 0.04zm-35.08-0.25c0.048-6e-4 0.095-0.0117 0.139-0.0324 0.043-0.0208 0.081-0.0506 0.111-0.0876 0.405-0.4729 0.861-0.899 1.36-1.27 0.036-0.0238 0.066-0.0548 0.089-0.0909s0.038-0.0765 0.045-0.1187c6e-3 -0.0423 4e-3 -0.0855-7e-3 -0.1268-0.011-0.0414-0.03-0.0801-0.057-0.1136-0.024-0.0355-0.055-0.0657-0.091-0.0886-0.036-0.023-0.076-0.0382-0.118-0.0448-0.043-0.0066-0.086-0.0043-0.127 0.0066-0.042 0.0109-0.08 0.0302-0.114 0.0568-0.544 0.4022-1.041 0.8652-1.48 1.38-0.057 0.0611-0.088 0.1415-0.088 0.225s0.031 0.164 0.088 0.225c0.044 0.0394 0.098 0.0666 0.156 0.0788 0.058 0.0123 0.118 0.0093 0.174-0.0088l-0.08 0.01zm31.58-1.45c0.064-3e-3 0.125-0.0231 0.178-0.0584 0.053-0.0352 0.095-0.0841 0.122-0.1416 0.017-0.0387 0.025-0.0803 0.026-0.1224 0-0.0421-8e-3 -0.0838-0.024-0.1228-0.015-0.039-0.039-0.0746-0.068-0.1046-0.03-0.0299-0.065-0.0538-0.104-0.0702-0.61-0.26-1.22-0.5-1.83-0.73-0.081-0.0294-0.17-0.026-0.248 0.0095-0.079 0.0355-0.14 0.1003-0.172 0.1805-0.029 0.0823-0.024 0.1726 0.014 0.2513 0.037 0.0787 0.104 0.1393 0.186 0.1687 0.6 0.22 1.2 0.46 1.79 0.71 0.057 0.0245 0.12 0.0314 0.18 0.02l-0.05 0.01zm-28.49-0.88c0.046 0.0146 0.095 0.0146 0.14 0 0.573-0.2761 1.16-0.5198 1.76-0.73 0.041-0.0135 0.078-0.0348 0.11-0.0628s0.058-0.0621 0.076-0.1003c0.019-0.0381 0.03-0.0796 0.032-0.122s-4e-3 -0.0848-0.018-0.1249c-0.013-0.0402-0.035-0.0774-0.063-0.1093s-0.062-0.0579-0.1-0.0766c-0.038-0.0186-0.079-0.0294-0.122-0.0318-0.042-0.0024-0.085 0.0036-0.125 0.0177-0.627 0.2184-1.241 0.4721-1.84 0.76-0.076 0.0405-0.133 0.1092-0.159 0.1915-0.027 0.0822-0.02 0.1714 0.019 0.2485 0.037 0.0537 0.089 0.0948 0.15 0.1181 0.061 0.0232 0.127 0.0274 0.19 0.0119l-0.05 0.01zm5-0.27c0.061 0.0038 0.121-0.0139 0.17-0.05 0.037-0.0214 0.068-0.0501 0.093-0.0842s0.043-0.073 0.052-0.1142c0.01-0.0412 0.01-0.0839 3e-3 -0.1254-8e-3 -0.0416-0.024-0.0811-0.048-0.1162-0.16-0.26-0.33-0.51-0.5-0.78l0.89-0.18c0.084-0.0146 0.158-0.0618 0.207-0.1312s0.068-0.1552 0.053-0.2388c-7e-3 -0.0423-0.023-0.0828-0.046-0.119s-0.053-0.0674-0.089-0.0916c-0.035-0.0243-0.075-0.0412-0.117-0.0496-0.042-0.0085-0.086-0.0084-0.128 2e-4 -0.39 0.07-0.78 0.15-1.16 0.24l-0.2-0.28c-0.024-0.0351-0.055-0.0651-0.09-0.0882-0.036-0.0231-0.076-0.0388-0.118-0.0463-0.042-0.0074-0.085-0.0065-0.126 0.0029-0.042 0.0094-0.081 0.0269-0.116 0.0516-0.035 0.0241-0.065 0.0548-0.088 0.0906-0.023 0.0357-0.039 0.0757-0.046 0.1176-8e-3 0.0419-7e-3 0.0849 3e-3 0.1264 9e-3 0.0415 0.027 0.0808 0.051 0.1154l0.05 0.07h-0.08c-0.083 0.0235-0.155 0.078-0.199 0.1524-0.045 0.0743-0.059 0.1629-0.041 0.2476 0.026 0.0816 0.081 0.1506 0.155 0.1933 0.074 0.0426 0.162 0.0557 0.245 0.0367l0.31-0.07c0.23 0.32 0.44 0.65 0.64 1 0.032 0.0376 0.072 0.0672 0.117 0.0863 0.045 0.0192 0.094 0.0273 0.143 0.0237l0.01 0.01zm19.86-0.21c0.069 3e-3 0.137-0.017 0.193-0.0569 0.056-0.0398 0.097-0.0972 0.117-0.1631 0.026-0.0822 0.018-0.1711-0.021-0.2477-0.04-0.0766-0.107-0.1348-0.189-0.1623-0.62-0.19-1.26-0.38-1.89-0.54-0.04-0.012-0.083-0.0154-0.125-0.0102s-0.083 0.0191-0.12 0.0406c-0.036 0.0216-0.068 0.0504-0.093 0.0848-0.025 0.0343-0.042 0.0734-0.052 0.1148-0.01 0.0407-0.013 0.0831-7e-3 0.1248 6e-3 0.0416 0.02 0.0817 0.041 0.1179 0.022 0.0362 0.05 0.0679 0.084 0.0931 0.033 0.0253 0.072 0.0438 0.112 0.0542 0.62 0.16 1.24 0.35 1.86 0.54l0.09 0.01zm-3.76-1c0.075 1e-3 0.147-0.0247 0.204-0.0724 0.056-0.0477 0.094-0.1143 0.106-0.1876 9e-3 -0.0414 0.01-0.0841 2e-3 -0.1256-8e-3 -0.0416-0.024-0.0812-0.047-0.1165-0.024-0.0354-0.054-0.0657-0.089-0.0894-0.035-0.0236-0.074-0.0401-0.116-0.0485-0.64-0.14-1.29-0.26-1.93-0.36-0.083-0.0145-0.169 0.0047-0.239 0.0535-0.069 0.0487-0.116 0.123-0.131 0.2065-8e-3 0.0423-8e-3 0.0858 1e-3 0.1279 9e-3 0.0422 0.027 0.0819 0.053 0.1167 0.025 0.0348 0.057 0.064 0.095 0.0856 0.037 0.0215 0.078 0.0351 0.121 0.0398 0.63 0.11 1.27 0.23 1.9 0.36l0.07 0.01zm-13.57-0.55c0.63-0.09 1.28-0.16 1.92-0.21 0.086-0.0076 0.165-0.0485 0.221-0.1139 0.057-0.0654 0.085-0.1501 0.079-0.2361-3e-3 -0.0421-0.016-0.083-0.035-0.1204-0.02-0.0374-0.047-0.0705-0.079-0.0975-0.033-0.027-0.07-0.0472-0.111-0.0596-0.04-0.0123-0.083-0.0166-0.125-0.0125-0.65 0-1.31 0.12-2 0.21-0.042 0.0049-0.082 0.0182-0.118 0.0392-0.037 0.0209-0.069 0.0491-0.094 0.0828s-0.044 0.0721-0.053 0.1131c-0.01 0.0409-0.012 0.0834-5e-3 0.1249 4e-3 0.0486 0.019 0.0956 0.043 0.1377 0.025 0.042 0.058 0.0779 0.099 0.1049 0.04 0.027 0.087 0.0444 0.135 0.0509s0.097 0.0019 0.143-0.0135h-0.02zm9.72-0.08c0.08 4e-4 0.157-0.0292 0.217-0.0829 0.059-0.0536 0.096-0.1275 0.103-0.2071 9e-3 -0.0834-0.016-0.1667-0.068-0.2322-0.053-0.0654-0.129-0.1077-0.212-0.1178-0.65-0.08-1.31-0.14-2-0.18-0.042-0.0027-0.084 0.0029-0.124 0.0166-0.04 0.0136-0.076 0.035-0.108 0.0628-0.032 0.0279-0.057 0.0617-0.076 0.0996-0.018 0.0378-0.029 0.079-0.032 0.121-4e-3 0.0424 1e-3 0.0851 0.014 0.1256 0.013 0.0404 0.034 0.0777 0.062 0.1096s0.063 0.0577 0.101 0.0757c0.039 0.018 0.081 0.028 0.123 0.0291 0.64 0.05 1.29 0.1 1.92 0.18h0.08zm-5.84-0.24h1.94c0.042 0.0014 0.083-0.0056 0.122-0.0206s0.074-0.0376 0.104-0.0666c0.03-0.0289 0.054-0.0635 0.07-0.1018s0.024-0.0794 0.024-0.121c2e-3 -0.042-5e-3 -0.0839-0.02-0.1232-0.015-0.0394-0.038-0.0754-0.066-0.106-0.029-0.0307-0.064-0.0554-0.102-0.0726-0.038-0.0173-0.08-0.0269-0.122-0.0282h-2c-0.043 0.0013-0.085 0.0112-0.124 0.0291s-0.074 0.0435-0.103 0.0752-0.051 0.0689-0.065 0.1094-0.02 0.0835-0.018 0.1263c2e-3 0.0459 0.014 0.0908 0.035 0.1317s0.051 0.0768 0.087 0.1052c0.036 0.0285 0.077 0.0489 0.122 0.0598 0.045 0.0108 0.091 0.012 0.136 0.0033h-0.02zm-8.65-1.11c0.073 9e-4 0.144-0.0239 0.2-0.07 0.059-0.0599 0.093-0.1407 0.093-0.225 0-0.0842-0.034-0.1651-0.093-0.225-0.4-0.52-0.82-1-1.24-1.53-0.06-0.0592-0.14-0.0924-0.225-0.0924-0.084 0-0.165 0.0332-0.225 0.0924-0.06 0.0616-0.093 0.1442-0.093 0.23 0 0.0859 0.033 0.1684 0.093 0.23 0.41 0.48 0.83 1 1.22 1.49 0.032 0.0469 0.075 0.0846 0.126 0.1092s0.108 0.0352 0.164 0.0308l-0.02-0.04zm-2.54-3c0.041 2e-4 0.082-0.0076 0.119-0.023 0.038-0.0155 0.072-0.0382 0.101-0.067 0.031-0.0289 0.055-0.0638 0.072-0.1025 0.016-0.0387 0.025-0.0804 0.025-0.1225s-9e-3 -0.0837-0.025-0.1224c-0.017-0.0387-0.041-0.0736-0.072-0.1026-0.45-0.48-0.92-0.94-1.4-1.38-0.029-0.0305-0.064-0.0549-0.102-0.0715-0.039-0.0166-0.081-0.0252-0.123-0.0252s-0.084 0.0086-0.122 0.0252c-0.039 0.0166-0.074 0.041-0.103 0.0715-0.031 0.0299-0.055 0.0656-0.072 0.1051s-0.025 0.082-0.025 0.1249 8e-3 0.0854 0.025 0.1249 0.041 0.0753 0.072 0.1051c0.47 0.43 0.93 0.89 1.38 1.35 0.027 0.0479 0.066 0.0874 0.114 0.114 0.047 0.0265 0.102 0.039 0.156 0.036l-0.02-0.04zm-2.85-2.65c0.095-0.0024 0.185-0.0419 0.25-0.11 0.06-0.0616 0.094-0.1441 0.094-0.23s-0.034-0.1684-0.094-0.23c-0.51-0.42-1-0.82-1.56-1.2-0.034-0.0247-0.074-0.0422-0.115-0.0516-0.042-0.0094-0.085-0.0103-0.127-0.0029-0.041 0.0075-0.081 0.0232-0.117 0.0463s-0.067 0.0531-0.091 0.0882c-0.025 0.0341-0.043 0.0728-0.053 0.1139-0.01 0.0412-0.012 0.0839-6e-3 0.1258 7e-3 0.0418 0.021 0.082 0.044 0.1181 0.022 0.0361 0.051 0.0675 0.085 0.0922 0.52 0.3734 1.03 0.7634 1.53 1.17 0.046 0.0566 0.109 0.0955 0.18 0.11l-0.02-0.04zm-3.17-2.26c0.054-2e-4 0.107-0.014 0.155-0.0402 0.047-0.0263 0.087-0.064 0.115-0.1098 0.046-0.0732 0.061-0.1613 0.042-0.2453-0.019-0.0841-0.07-0.1575-0.142-0.2047-0.56-0.34-1.14-0.67-1.72-1-0.077-0.0388-0.166-0.0459-0.248-0.0197-0.083 0.0261-0.151 0.0835-0.192 0.1597-0.038 0.0756-0.045 0.1634-0.019 0.244 0.027 0.0806 0.084 0.1475 0.159 0.186 0.57 0.3 1.13 0.62 1.68 1 0.026 0.0238 0.056 0.0423 0.088 0.0543 0.033 0.012 0.068 0.0174 0.102 0.0157l-0.02-0.04zm-3.46-1.8c0.063 0.0015 0.126-0.0157 0.179-0.0495s0.096-0.0827 0.121-0.1405c0.017-0.0387 0.025-0.0803 0.026-0.1224 0-0.0421-8e-3 -0.0838-0.024-0.1228-0.015-0.0391-0.039-0.0746-0.068-0.1046-0.03-0.0299-0.065-0.0538-0.104-0.0702-0.6-0.26-1.22-0.5-1.84-0.72-0.04-0.0141-0.082-0.0201-0.125-0.0177-0.042 0.0024-0.083 0.0132-0.122 0.0318-0.038 0.0187-0.072 0.0447-0.1 0.0766s-0.049 0.0691-0.063 0.1093c-0.014 0.0401-0.02 0.0825-0.017 0.1249 2e-3 0.0424 0.013 0.0839 0.031 0.122 0.019 0.0382 0.045 0.0723 0.077 0.1003s0.069 0.0493 0.109 0.0628c0.6 0.21 1.21 0.45 1.79 0.7 0.044 0.0325 0.096 0.0532 0.15 0.06l-0.02-0.04zm-24.9-0.8h0.07l1.9-0.4c0.0424-0.0072 0.0828-0.0228 0.119-0.0459 0.0362-0.0232 0.0674-0.0534 0.0916-0.0889 0.0243-0.0354 0.0412-0.0754 0.0496-0.1176 0.0085-0.0421 0.0085-0.0855-2e-4 -0.1276-0.0192-0.0824-0.0693-0.1544-0.1401-0.2009-0.0707-0.0465-0.1566-0.0641-0.2399-0.0491-0.64 0.12-1.28 0.26-1.92 0.4-0.0824 0.0192-0.1544 0.0694-0.2009 0.1401s-0.0641 0.1566-0.0491 0.2399c0.0121 0.0813 0.0532 0.1554 0.1157 0.2087s0.1421 0.0822 0.2243 0.0813l-0.02-0.04zm21.22-0.48c0.073 0.0023 0.144-0.0202 0.202-0.0638 0.059-0.0436 0.1-0.1058 0.118-0.1762 0.011-0.0407 0.013-0.0831 7e-3 -0.1247-6e-3 -0.0417-0.02-0.0817-0.041-0.1179-0.021-0.0363-0.05-0.0679-0.083-0.0932-0.034-0.0253-0.072-0.0437-0.113-0.0542-0.6297-0.17-1.2697-0.33-1.9197-0.46-0.0848-0.0147-0.1719 0.0042-0.2428 0.0528-0.071 0.0486-0.1203 0.1229-0.1372 0.2072-0.0151 0.0834 0.0025 0.1692 0.049 0.24 0.0466 0.0707 0.1185 0.1208 0.201 0.14 0.64 0.12 1.27 0.27 1.8797 0.44l0.08 0.01zm-17.4-0.28h0.06c0.6666-0.1133 1.3067-0.2133 1.92-0.3 0.0842-0.0147 0.1592-0.0615 0.2096-0.1305s0.072-0.1549 0.0604-0.2395c-0.0049-0.0418-0.0181-0.0822-0.0391-0.1187s-0.0492-0.0684-0.0829-0.0937c-0.0337-0.0252-0.0722-0.0434-0.1131-0.0533s-0.0834-0.0113-0.1249-0.0043c-0.65 0.09-1.29 0.19-1.94 0.3-0.0835 0.0147-0.1578 0.0619-0.2066 0.1312-0.0487 0.0694-0.068 0.1553-0.0534 0.2388-1e-4 0.0425 0.0085 0.0845 0.0254 0.1235 0.0168 0.0389 0.0414 0.074 0.0723 0.1031 0.031 0.0291 0.0676 0.0515 0.1075 0.0658 0.04 0.0144 0.0824 0.0204 0.1248 0.0176l-0.02-0.04zm13.59-0.49c0.0778-0.0014 0.1526-0.0303 0.2111-0.0816 0.0586-0.0512 0.0971-0.1215 0.1089-0.1984 0.0056-0.042 0.0027-0.0848-0.0084-0.1258-0.0111-0.0409-0.0302-0.0793-0.0562-0.1128-0.0261-0.0335-0.0586-0.0615-0.0956-0.0823-0.0369-0.0209-0.0777-0.0341-0.1198-0.0391-0.64-0.09-1.3-0.16-2-0.21-0.0416-0.0041-0.0834 2e-4 -0.1233 0.0127-0.0398 0.0125-0.0767 0.0329-0.1084 0.06-0.0318 0.027-0.0578 0.0602-0.0764 0.0976-0.0186 0.0373-0.0294 0.0781-0.0319 0.1197-0.0041 0.0421 1e-4 0.0845 0.0125 0.125 0.0123 0.0404 0.0326 0.0779 0.0595 0.1105 0.027 0.0325 0.0602 0.0594 0.0976 0.0791 0.0374 0.0196 0.0783 0.0317 0.1204 0.0354 0.65 0.05 1.3 0.12 1.92 0.21h0.09zm-9.73-0.05c0.64-0.07 1.29-0.12 1.93-0.17 0.0421-0.0025 0.0832-0.0133 0.121-0.0318 0.0379-0.0185 0.0717-0.0443 0.0996-0.0759 0.0279-0.0315 0.0492-0.0683 0.0629-0.1082 0.0136-0.0399 0.0192-0.082 0.0165-0.1241-0.0025-0.0429-0.0136-0.085-0.0327-0.1235-0.0191-0.0386-0.0458-0.0729-0.0785-0.1009s-0.0707-0.0491-0.1117-0.0621-0.0843-0.0176-0.1271-0.0135c-0.65 0-1.3 0.1-2 0.17-0.0421 0.0038-0.0831 0.0158-0.1205 0.0355s-0.0705 0.0466-0.0974 0.0791c-0.027 0.0325-0.0472 0.0701-0.0596 0.1105s-0.0167 0.0829-0.0125 0.1249c-0.0051 0.0539 0.0036 0.1083 0.0252 0.1579 0.0217 0.0497 0.0556 0.093 0.0986 0.126 0.0429 0.033 0.0936 0.0545 0.1471 0.0626 0.0536 8e-3 0.1083 0.0024 0.1591-0.0165l-0.02-0.04zm5.84-0.26c0.0841 2e-4 0.1652-0.0318 0.2265-0.0895 0.0614-0.0576 0.0984-0.1365 0.1035-0.2205 0.0013-0.0428-6e-3 -0.0855-0.0214-0.1255-0.0155-0.04-0.0389-0.0765-0.0688-0.1072-0.0298-0.0308-0.0655-0.0553-0.105-0.072s-0.0819-0.0253-0.1248-0.0253h-2c-0.0429 0-0.0853 0.0086-0.1248 0.0253s-0.0753 0.0412-0.1051 0.072c-0.0299 0.0307-0.0532 0.0672-0.0687 0.1072s-0.0228 0.0827-0.0214 0.1255c0.0026 0.0831 0.0374 0.162 0.0971 0.2199 0.0598 0.0578 0.1397 0.0902 0.2229 0.0901h1.99z" fill="#999"/>
<path d="m42.454 27.13-2.8199 1.22-11.27-7.86-3 1.66c-2.41 1.44-4.75 1.54-5.87 0.9l-0.2301 0.11c-1.74 0.76-2.77 0.08-3.12-0.74s-0.1499-2 1.5901-2.78l0.23-0.1c0.2099-1 1.12-2.68 4.67-3.67l3.27-1.05 2-13.59 2.82-1.23 2.19 12.59 8.06-2.76 1.22-3.23 2.24-0.82999 0.16 3 0.7999-0.07001 0.7301 1.67-0.6001 0.59 2.12 2.2-2.1399 1.07-3.18-1.32-7.53 4 7.6599 10.22zm-0.2099-14.95 3.2 1.33 1-0.52-1.94-2 0.73-0.74-0.3401-0.79001-1 0.09-0.1499-2.8-1.09 0.39999-1.22 3.24-9.12 3.11-2.1701-12.51-1.69 0.73001-1.9499 13.64-3.69 1.18c-3.44 0.95-4.12 2.49-4.22 3.32v0.21l-0.2001 0.07c-0.127 0.0362-0.2508 0.083-0.37 0.14-1.07 0.46-1.5499 1.19-1.2399 1.89s1.1599 0.86 2.2299 0.39c0.1204-0.0486 0.2374-0.1054 0.3501-0.17l0.19-0.11 0.18 0.13c0.73 0.54 2.86 0.64 5.32-0.82l3.36-1.88 11.3 7.89 1.69-0.73-7.66-10.14 8.5-4.55z" fill="#999"/>
<path d="m139.23 111.06c0.054 0 0.108-0.013 0.155-0.039 0.048-0.027 0.087-0.065 0.115-0.111 0.36-0.547 0.694-1.097 1-1.65 0.046-0.074 0.061-0.162 0.042-0.246s-0.07-0.157-0.142-0.204c-0.074-0.045-0.163-0.058-0.247-0.038-0.084 0.021-0.157 0.074-0.203 0.148-0.34 0.55-0.68 1.09-1 1.64-0.024 0.035-0.041 0.075-0.049 0.116-9e-3 0.042-9e-3 0.086-1e-3 0.128 9e-3 0.041 0.025 0.081 0.049 0.117 0.024 0.035 0.055 0.065 0.091 0.089 0.059 0.031 0.124 0.049 0.19 0.05zm2-3.32c0.057-1e-3 0.112-0.016 0.161-0.044s0.09-0.068 0.119-0.116c0.32-0.57 0.64-1.14 1-1.71 0.041-0.075 0.051-0.163 0.029-0.245-0.023-0.081-0.076-0.152-0.149-0.195-0.076-0.04-0.164-0.049-0.246-0.024-0.082 0.024-0.152 0.079-0.194 0.154-0.31 0.57-0.63 1.13-0.95 1.69-0.044 0.074-0.058 0.163-0.037 0.247s0.074 0.157 0.147 0.203c0.052 0.028 0.111 0.042 0.17 0.04h-0.05zm1.86-3.42c0.06-1e-3 0.119-0.018 0.17-0.05s0.093-0.077 0.12-0.13c0.3-0.58 0.59-1.17 0.87-1.75 0.019-0.039 0.03-0.08 0.032-0.122 3e-3 -0.042-3e-3 -0.085-0.017-0.125s-0.036-0.077-0.064-0.108c-0.028-0.032-0.062-0.057-0.101-0.075-0.038-0.019-0.079-0.03-0.121-0.033-0.043-2e-3 -0.085 4e-3 -0.125 0.018s-0.077 0.035-0.108 0.064c-0.032 0.028-0.058 0.062-0.076 0.101-0.28 0.58-0.57 1.16-0.87 1.74-0.018 0.038-0.029 0.079-0.032 0.121-2e-3 0.042 3e-3 0.085 0.017 0.125s0.036 0.077 0.064 0.108c0.029 0.032 0.063 0.057 0.101 0.076 0.027 0.02 0.058 0.034 0.091 0.041 0.033 6e-3 0.067 6e-3 0.099-1e-3h-0.05zm1.69-3.52c0.063-1e-3 0.124-0.02 0.177-0.053 0.053-0.034 0.096-0.081 0.123-0.137l0.78-1.7905c0.033-0.0809 0.033-0.1716-1e-3 -0.2522s-0.098-0.1445-0.179-0.1778c-0.079-0.03-0.168-0.028-0.246 0.0056-0.078 0.0335-0.14 0.096-0.174 0.1744-0.25 0.59-0.51 1.18-0.77 1.7805-0.018 0.037-0.028 0.079-0.03 0.121s5e-3 0.084 0.02 0.123 0.038 0.075 0.067 0.105 0.064 0.054 0.103 0.071c0.056 0.027 0.119 0.038 0.18 0.03h-0.05zm1.51-3.5905c0.064-6e-4 0.127-0.0199 0.18-0.0554s0.095-0.0857 0.12-0.1446c0.24-0.62 0.47-1.23 0.7-1.84 0.014-0.04 0.02-0.0824 0.018-0.1248s-0.013-0.0839-0.032-0.1221c-0.018-0.0381-0.044-0.0722-0.076-0.1002s-0.069-0.0494-0.11-0.0629c-0.079-0.0264-0.166-0.0215-0.242 0.0138-0.077 0.0353-0.136 0.0983-0.168 0.1762-0.22 0.61-0.45 1.21-0.69 1.82-0.03 0.0797-0.028 0.168 6e-3 0.2462 0.033 0.0783 0.096 0.1406 0.174 0.1738l0.12 0.02zm1.34-3.66c0.067-8e-4 0.132-0.0224 0.186-0.0619 0.053-0.0394 0.093-0.0947 0.114-0.1581 0.22-0.62 0.42-1.24 0.61-1.86 0.026-0.0822 0.018-0.1711-0.021-0.2477-0.04-0.0766-0.107-0.1348-0.189-0.1623-0.082-0.0253-0.171-0.0176-0.247 0.0217-0.077 0.0392-0.135 0.1068-0.163 0.1883-0.19 0.62-0.39 1.23-0.6 1.85-0.025 0.0823-0.017 0.1711 0.022 0.2477s0.107 0.1349 0.188 0.1623l0.1 0.02zm1.16-3.72c0.071-0.0016 0.139-0.0257 0.195-0.0689s0.096-0.1032 0.115-0.1711c0.18-0.63 0.36-1.26 0.52-1.88 0.022-0.0835 0.01-0.1721-0.033-0.2469-0.043-0.0747-0.114-0.1297-0.197-0.1531-0.04-0.0105-0.083-0.0129-0.124-7e-3 -0.042 0.0058-0.082 0.0198-0.118 0.0412-0.037 0.0214-0.068 0.0497-0.094 0.0833-0.025 0.0336-0.043 0.0718-0.054 0.1125-0.17 0.62-0.34 1.25-0.52 1.87-0.012 0.0407-0.016 0.0835-0.011 0.1257 4e-3 0.0423 0.017 0.0832 0.037 0.1205 0.021 0.0372 0.049 0.07 0.082 0.0964s0.071 0.0459 0.112 0.0574l0.09 0.02zm1-3.77c0.072-0.0022 0.141-0.0278 0.197-0.0729 0.056-0.0452 0.096-0.1073 0.113-0.1771 0.15-0.64 0.3-1.28 0.43-1.91 0.011-0.0407 0.012-0.0832 6e-3 -0.1247-7e-3 -0.0415-0.022-0.0812-0.044-0.1168-0.023-0.0355-0.052-0.0661-0.087-0.0899-0.034-0.0238-0.073-0.0404-0.115-0.0486-0.041-0.0103-0.084-0.0123-0.126-0.0058s-0.083 0.0213-0.119 0.0437c-0.037 0.0224-0.068 0.0518-0.093 0.0865s-0.042 0.074-0.052 0.1156c-0.13 0.63-0.28 1.26-0.43 1.9-0.018 0.0835-3e-3 0.1707 0.042 0.2434 0.044 0.0728 0.116 0.1253 0.198 0.1466l0.08 0.01zm0.82-3.82c0.076 0.0014 0.149-0.024 0.208-0.0716 0.058-0.0475 0.098-0.1143 0.112-0.1884 0.12-0.64 0.24-1.28 0.35-1.92 0.015-0.0835-4e-3 -0.1694-0.053-0.2388-0.049-0.0693-0.123-0.1165-0.207-0.1312-0.042-0.0086-0.085-0.0087-0.127-2e-4 -0.042 0.0084-0.082 0.0253-0.118 0.0496-0.035 0.0242-0.066 0.0554-0.089 0.0916s-0.039 0.0767-0.046 0.119c-0.11 0.63-0.22 1.27-0.35 1.91-8e-3 0.0421-9e-3 0.0855 0 0.1277 8e-3 0.0421 0.025 0.0821 0.05 0.1175 0.024 0.0355 0.055 0.0657 0.091 0.0889 0.036 0.0231 0.077 0.0388 0.119 0.0459h0.06zm0.66-3.84c0.078 0.0032 0.153-0.0228 0.213-0.0728 0.059-0.05 0.097-0.1203 0.107-0.1972 0.1-0.65 0.19-1.3 0.27-1.94 6e-3 -0.042 3e-3 -0.0848-8e-3 -0.1258-0.011-0.0409-0.03-0.0793-0.056-0.1128s-0.059-0.0615-0.096-0.0823c-0.037-0.0209-0.078-0.0341-0.12-0.0391-0.042-7e-3 -0.085-0.0053-0.127 0.0053-0.041 0.0105-0.08 0.0295-0.114 0.0558s-0.062 0.0593-0.082 0.097c-0.021 0.0377-0.033 0.0792-0.037 0.1219-0.08 0.6267-0.17 1.2667-0.27 1.92-0.011 0.0847 0.01 0.1705 0.061 0.2395 0.05 0.069 0.125 0.1158 0.209 0.1305h0.05zm0.49-3.87c0.081 0.0028 0.159-0.0259 0.219-0.0801 0.06-0.0541 0.096-0.1294 0.101-0.2099 0.07-0.65 0.14-1.3 0.19-1.94 6e-3 -0.0859-0.022-0.1706-0.078-0.236-0.057-0.0654-0.136-0.1063-0.222-0.114-0.042-0.0056-0.084-0.0024-0.124 0.0095-0.041 0.0119-0.078 0.0322-0.11 0.0596-0.033 0.0274-0.059 0.0612-0.077 0.0992-0.018 0.0381-0.028 0.0796-0.029 0.1217-0.06 0.64-0.12 1.29-0.19 1.94-4e-3 0.0421 0 0.0845 0.013 0.125 0.012 0.0404 0.032 0.0779 0.059 0.1105 0.027 0.0325 0.06 0.0594 0.098 0.079 0.037 0.0197 0.078 0.0318 0.12 0.0355h0.03zm0.33-3.88c0.082 2e-4 0.16-0.0308 0.22-0.0865 0.059-0.0558 0.095-0.1321 0.1-0.2135 0-0.67 0.08-1.32 0.1-2 3e-3 -0.0428-3e-3 -0.0858-0.017-0.1263s-0.037-0.0777-0.066-0.1094-0.064-0.0573-0.103-0.0752-0.081-0.0278-0.124-0.0291c-0.084 0.0039-0.164 0.037-0.226 0.0936s-0.102 0.1332-0.114 0.2164c0 0.64 0 1.29-0.09 1.94-5e-3 0.086 0.023 0.1707 0.079 0.2361s0.136 0.1063 0.221 0.1139l0.02 0.04zm0.15-3.9c0.085 0 0.167-0.0337 0.227-0.0937s0.093-0.1414 0.093-0.2263v-1.36-0.59c0-0.0848-0.033-0.1662-0.093-0.2262-0.06-0.0601-0.142-0.0938-0.227-0.0938s-0.166 0.0337-0.226 0.0938c-0.06 0.06-0.094 0.1414-0.094 0.2262v0.59 1.35c-1e-3 0.0429 6e-3 0.0856 0.022 0.1256 0.015 0.0399 0.039 0.0764 0.068 0.1072 0.03 0.0308 0.066 0.0553 0.105 0.072 0.04 0.0167 0.082 0.0252 0.125 0.0252zm0-3.9c0.043 1e-4 0.086-0.0085 0.125-0.0253 0.04-0.0167 0.075-0.0411 0.105-0.0719s0.053-0.0672 0.069-0.1072c0.015-0.04 0.023-0.0827 0.021-0.1256 0-0.67-0.06-1.32-0.09-2-7e-3 -0.0858-0.048-0.1652-0.114-0.2212-0.065-0.0561-0.15-0.0843-0.236-0.0788-0.042 0.0026-0.083 0.0134-0.121 0.0319s-0.071 0.0442-0.099 0.0758-0.05 0.0684-0.063 0.1083c-0.014 0.0398-0.019 0.082-0.017 0.124 0 0.63 0.07 1.28 0.09 1.94-4e-3 0.0471 1e-3 0.0947 0.017 0.1393s0.042 0.0851 0.075 0.1186c0.034 0.0335 0.074 0.0591 0.119 0.075 0.045 0.016 0.092 0.0218 0.139 0.0171h-0.02zm-0.23-3.89c0.042-0.0037 0.083-0.0158 0.121-0.0355 0.037-0.0196 0.07-0.0465 0.097-0.079 0.027-0.0326 0.047-0.0701 0.06-0.1105 0.012-0.0405 0.016-0.0829 0.012-0.125-0.06-0.6666-0.13-1.3333-0.21-2-3e-3 -0.0427-0.016-0.0842-0.036-0.1219s-0.048-0.0707-0.082-0.097-0.073-0.0453-0.115-0.0558c-0.041-0.0105-0.084-0.0123-0.127-0.0053-0.084 0.0125-0.16 0.0568-0.212 0.1239-0.052 0.067-0.076 0.1516-0.068 0.2361 0.08 0.61 0.15 1.26 0.21 1.93-4e-3 0.0493 4e-3 0.0987 0.022 0.1446s0.047 0.0869 0.084 0.1198 0.081 0.0569 0.128 0.07c0.048 0.0131 0.098 0.0151 0.146 0.0056h-0.03zm-0.48-3.87c0.084-0.0146 0.158-0.0618 0.207-0.1312 0.049-0.0693 0.068-0.1552 0.053-0.2388l-0.06-0.39c-0.09-0.51-0.19-1-0.29-1.54-8e-3 -0.0414-0.025-0.0808-0.048-0.1159-0.024-0.0351-0.054-0.0651-0.09-0.0883-0.035-0.0233-0.075-0.0393-0.116-0.0472-0.042-0.0078-0.084-0.0073-0.126 0.0014-0.042 0.0071-0.082 0.0227-0.118 0.046s-0.066 0.0537-0.09 0.0894c-0.023 0.0357-0.039 0.0759-0.046 0.1179-8e-3 0.0421-6e-3 0.0853 4e-3 0.1267 0.1 0.51 0.19 1 0.28 1.52l0.07 0.38c5e-3 0.045 0.019 0.0885 0.041 0.1275 0.023 0.039 0.054 0.0726 0.091 0.0983 0.038 0.0257 0.08 0.043 0.124 0.0506 0.045 0.0077 0.091 0.0055 0.134-0.0064h-0.02zm-0.77-3.82h0.07c0.041-0.0082 0.081-0.0247 0.115-0.0485 0.035-0.0238 0.064-0.0544 0.087-0.09 0.022-0.0355 0.037-0.0752 0.044-0.1168 6e-3 -0.0415 5e-3 -0.0839-6e-3 -0.1247-0.15-0.64-0.3-1.27-0.47-1.91-0.011-0.0409-0.031-0.0791-0.057-0.1124-0.027-0.0333-0.059-0.061-0.097-0.0814-0.037-0.0205-0.078-0.0334-0.12-0.0379s-0.085-5e-4 -0.126 0.0117c-0.04 0.0105-0.079 0.0289-0.112 0.0542-0.034 0.0253-0.062 0.0569-0.084 0.0932-0.021 0.0362-0.035 0.0763-0.041 0.1179s-3e-3 0.084 7e-3 0.1247c0.17 0.63 0.33 1.25 0.47 1.88 0.021 0.073 0.066 0.1367 0.128 0.1804s0.137 0.0648 0.212 0.0596h-0.02zm-1-3.76h0.09c0.041-0.0115 0.079-0.031 0.113-0.0574 0.033-0.0264 0.061-0.0592 0.081-0.0964 0.021-0.0373 0.033-0.0782 0.038-0.1205 4e-3 -0.0422 1e-3 -0.085-0.012-0.1257-0.19-0.63-0.39-1.25-0.6-1.87-0.013-0.0402-0.035-0.0774-0.063-0.1093s-0.062-0.0579-0.1-0.0766c-0.038-0.0186-0.079-0.0294-0.122-0.0318-0.042-0.0024-0.085 0.0036-0.125 0.0177-0.04 0.0135-0.077 0.0349-0.109 0.0629s-0.058 0.0621-0.077 0.1002c-0.018 0.0382-0.029 0.0797-0.031 0.1221-3e-3 0.0424 3e-3 0.0848 0.017 0.1248 0.21 0.61 0.4 1.23 0.59 1.85 0.024 0.0648 0.068 0.1203 0.125 0.1581 0.058 0.0379 0.126 0.0561 0.195 0.0519h-0.01zm-1.25-3.7c0.036 0.0093 0.074 0.0093 0.11 0 0.08-0.0293 0.144-0.0888 0.18-0.1657s0.039-0.1647 0.01-0.2443c-0.23-0.61-0.47-1.22-0.73-1.82-0.015-0.0396-0.038-0.0758-0.068-0.1064-0.029-0.0306-0.065-0.055-0.104-0.0718-0.039-0.0167-0.081-0.0255-0.124-0.0258-0.042-3e-4 -0.084 0.0079-0.124 0.024-0.039 0.0164-0.074 0.0403-0.103 0.0703-0.03 0.0299-0.053 0.0655-0.069 0.1045s-0.024 0.0807-0.023 0.1228c0 0.0421 9e-3 0.0837 0.025 0.1224 0.25 0.6 0.49 1.2 0.71 1.81 0.03 0.0584 0.076 0.1066 0.133 0.1386 0.057 0.0321 0.122 0.0465 0.187 0.0414h-0.01zm-1.47-3.54c0.046 0.0095 0.094 0.0095 0.14 0 0.078-0.0369 0.137-0.1024 0.167-0.1826s0.028-0.1689-7e-3 -0.2474c-0.28-0.59-0.56-1.18-0.86-1.77-0.04-0.0737-0.107-0.1292-0.187-0.1552s-0.167-0.0206-0.243 0.0152c-0.078 0.0388-0.137 0.1067-0.165 0.1891-0.028 0.0825-0.023 0.1726 0.015 0.2509 0.3 0.57 0.58 1.15 0.85 1.74 0.029 0.0514 0.071 0.0937 0.122 0.122s0.11 0.0415 0.168 0.038zm-1.76-3.48c0.049 0.0137 0.101 0.0137 0.15 0 0.038-0.0199 0.072-0.0472 0.099-0.0802 0.027-0.0331 0.047-0.0713 0.059-0.1123s0.016-0.0841 0.011-0.1266c-4e-3 -0.0425-0.018-0.0836-0.039-0.1209-0.32-0.57-0.65-1.14-1-1.69-0.02-0.0372-0.048-0.0698-0.082-0.0957s-0.073-0.0446-0.114-0.055c-0.041-0.0103-0.084-0.012-0.126-5e-3s-0.082 0.0226-0.118 0.0457c-0.036 0.0216-0.067 0.0502-0.093 0.084-0.025 0.0338-0.043 0.0723-0.053 0.1132s-0.012 0.0834-6e-3 0.125c6e-3 0.0417 0.02 0.0817 0.042 0.1178 0.34 0.55 0.66 1.11 1 1.68 0.033 0.0277 0.072 0.0482 0.113 0.0603 0.041 0.012 0.085 0.0154 0.127 0.0097l0.03 0.05zm-2-3.33c0.059 0.0178 0.122 0.0178 0.18 0 0.036-0.0232 0.067-0.0534 0.091-0.0888s0.041-0.0752 0.049-0.1172c9e-3 -0.0419 9e-3 -0.0851 0-0.127s-0.025-0.0817-0.05-0.117c-0.37-0.54-0.74-1.08-1.13-1.61-0.051-0.0672-0.127-0.112-0.211-0.125-0.084-0.0131-0.169 0.0066-0.239 0.055-0.067 0.0517-0.112 0.1272-0.125 0.211s7e-3 0.1694 0.055 0.239c0.38 0.52 0.75 1.05 1.11 1.59 0.064 0.037 0.138 0.0512 0.21 0.04l0.06 0.05zm-44-2.21h0.41c0.0421-0.0025 0.0832-0.0133 0.121-0.0318 0.0379-0.0185 0.0717-0.0443 0.0996-0.0759s0.0492-0.0683 0.0628-0.1082c0.0137-0.0399 0.0193-0.082 0.0166-0.1241-0.0012-0.0425-0.0111-0.0843-0.0291-0.1228s-0.0438-0.073-0.0757-0.1011-0.0692-0.0494-0.1097-0.0625-0.0832-0.0177-0.1255-0.0136c-0.3826 0.0351-0.7675 0.0351-1.15 0-0.2292-0.0288-0.4563-0.0722-0.68-0.13-0.0835-0.0215-0.1721-0.0095-0.2469 0.0335-0.0747 0.043-0.1297 0.1135-0.1531 0.1965-0.0104 0.0414-0.0124 0.0845-0.0059 0.1266 0.0065 0.0422 0.0214 0.0826 0.0437 0.119 0.0224 0.0363 0.0518 0.0678 0.0865 0.0926s0.0741 0.0424 0.1157 0.0518c0.2523 0.0701 0.5098 0.1203 0.77 0.15 0.2473-0.0049 0.4943-0.0215 0.74-0.05l0.11 0.05zm2.2997-0.39h0.1c0.65-0.2281 1.255-0.5664 1.79-1 0.06-0.0616 0.094-0.1441 0.094-0.23s-0.034-0.1684-0.094-0.23c-0.03-0.0308-0.065-0.0553-0.105-0.0721-0.039-0.0167-0.082-0.0254-0.125-0.0254s-0.085 0.0087-0.125 0.0254c-0.039 0.0168-0.075 0.0413-0.105 0.0721-0.478 0.3817-1.015 0.6823-1.59 0.89-0.04 0.0135-0.077 0.0349-0.109 0.0629s-0.058 0.0621-0.077 0.1002c-0.018 0.0382-0.029 0.0797-0.031 0.1221-3e-3 0.0423 3e-3 0.0848 0.017 0.1248 0.032 0.0351 0.07 0.0631 0.113 0.0821s0.09 0.0285 0.137 0.0279l0.11 0.05zm39.45-0.54c0.073 9e-4 0.144-0.0239 0.2-0.07 0.06-0.0616 0.094-0.1441 0.094-0.23s-0.034-0.1684-0.094-0.23c-0.41-0.51-0.84-1-1.26-1.5-0.061-0.0598-0.144-0.0933-0.23-0.0933s-0.168 0.0335-0.23 0.0933c-0.06 0.0616-0.093 0.1441-0.093 0.23s0.033 0.1684 0.093 0.23c0.42 0.48 0.84 1 1.24 1.48 0.053 0.0279 0.111 0.0417 0.17 0.04l0.11 0.05zm-45.06-0.05c0.0526-0.0015 0.1042-0.0149 0.151-0.0391 0.0467-0.0242 0.0874-0.0587 0.119-0.1009 0.0453-0.0732 0.0602-0.1612 0.0416-0.2453-0.0187-0.0841-0.0695-0.1575-0.1416-0.2047-0.5159-0.3426-0.9833-0.7529-1.39-1.22-0.0599-0.0592-0.1408-0.0924-0.225-0.0924-0.0843 0-0.1651 0.0332-0.225 0.0924-0.0599 0.0616-0.0934 0.1441-0.0934 0.23s0.0335 0.1684 0.0934 0.23c0.4435 0.5173 0.9587 0.9686 1.53 1.34 0.0098 4e-3 0.0198 0.0073 0.03 0.01h0.11zm8.5297-1.85c0.058-0.0015 0.114-0.018 0.163-0.0478s0.089-0.0719 0.117-0.1222c0.33-0.6227 0.544-1.3005 0.63-2 6e-3 -0.042 3e-3 -0.0848-8e-3 -0.1258-0.011-0.0409-0.03-0.0793-0.056-0.1128s-0.059-0.0615-0.096-0.0823-0.078-0.0341-0.12-0.0391c-0.083-0.0114-0.168 0.0105-0.235 0.0611-0.068 0.0505-0.112 0.1256-0.125 0.2089-0.083 0.6071-0.269 1.1956-0.55 1.74-0.021 0.0373-0.034 0.0784-0.039 0.1209s-1e-3 0.0856 0.011 0.1266 0.033 0.0792 0.06 0.1122c0.027 0.0331 0.06 0.0604 0.098 0.0803 0.013 0.0108 0.026 0.0208 0.04 0.03l0.11 0.05zm33.95-1c0.086 9e-4 0.168-0.0313 0.23-0.09 0.06-0.0616 0.094-0.1441 0.094-0.23s-0.034-0.1684-0.094-0.23c-0.46-0.47-0.93-0.93-1.4-1.38-0.061-0.0598-0.144-0.0933-0.23-0.0933s-0.168 0.0335-0.23 0.0933c-0.059 0.0599-0.092 0.1408-0.092 0.225 0 0.0843 0.033 0.1651 0.092 0.225 0.46 0.44 0.92 0.9 1.37 1.36 0.046 0.0263 0.098 0.0401 0.15 0.04l0.11 0.08zm-45 0c0.0495 0.0095 0.1004 0.0095 0.15 0 0.0744-0.0422 0.1302-0.111 0.1561-0.1926 0.026-0.0815 0.0202-0.1699-0.0161-0.2474-0.2816-0.5565-0.4868-1.1485-0.61-1.76-0.0094-0.0416-0.027-0.0809-0.0518-0.1156s-0.0563-0.0641-0.0927-0.0865c-0.0363-0.0224-0.0768-0.0372-0.1189-0.0437-0.0422-0.0065-0.0852-0.0046-0.1266 0.0058-0.0415 0.0084-0.0809 0.0249-0.116 0.0485-0.035 0.0237-0.065 0.054-0.0883 0.0894-0.0232 0.0353-0.0393 0.0749-0.0471 0.1165-0.0079 0.0416-0.0074 0.0842 0.0014 0.1256 0.145 0.6615 0.37 1.3029 0.67 1.91 0.0481 0.0302 0.1033 0.0474 0.16 0.05l0.13 0.1zm42.19-2.65c0.046-2e-4 0.091-0.0101 0.132-0.0291 0.042-0.0189 0.078-0.0465 0.108-0.0809 0.06-0.0616 0.094-0.1441 0.094-0.23s-0.034-0.1684-0.094-0.23l-0.6-0.5-0.93-0.73c-0.069-0.0525-0.156-0.0757-0.242-0.0644-0.086 0.0112-0.164 0.0559-0.218 0.1244-0.049 0.0685-0.071 0.1533-0.059 0.237 0.011 0.0837 0.054 0.1599 0.119 0.213l0.92 0.72 0.59 0.5c0.018-0.0084 0.035-0.0184 0.05-0.03l0.13 0.1zm-30.52-0.09c0.086-0.01 0.165-0.0534 0.219-0.1207s0.08-0.1532 0.071-0.2393c-0.076-0.6784-0.217-1.3481-0.42-2-0.011-0.0409-0.031-0.0791-0.057-0.1124-0.027-0.0333-0.059-0.0609-0.097-0.0814-0.037-0.0205-0.078-0.0334-0.12-0.0379s-0.085-5e-4 -0.126 0.0117c-0.041 0.0113-0.079 0.0309-0.111 0.0575-0.033 0.0266-0.061 0.0596-0.08 0.0971-0.02 0.0375-0.032 0.0786-0.035 0.1208s2e-3 0.0846 0.016 0.1246c0.182 0.6048 0.312 1.2236 0.39 1.85 0.014 0.0542 0.041 0.104 0.08 0.1443 0.038 0.0404 0.087 0.0699 0.14 0.0857l0.13 0.1zm-12.45-1c0.0815 2e-4 0.16-0.0308 0.2195-0.0865 0.0594-0.0558 0.0954-0.1321 0.1005-0.2135 0.0461-0.6149 0.1878-1.2188 0.42-1.79 0.0164-0.0387 0.0251-0.0803 0.0255-0.1224s-0.0076-0.0838-0.0234-0.1228-0.0391-0.0746-0.0687-0.1046c-0.0295-0.0299-0.0646-0.0538-0.1034-0.0702-0.0387-0.0164-0.0804-0.0251-0.1224-0.0255-0.0421-3e-4 -0.0839 0.0076-0.1229 0.0234s-0.0745 0.0391-0.1045 0.0687c-0.03 0.0295-0.0538 0.0647-0.0702 0.1034-0.265 0.6365-0.4238 1.3121-0.47 2-0.0041 0.0429 4e-4 0.0861 0.0134 0.1271s0.0341 0.079 0.0621 0.1117 0.0624 0.0594 0.1009 0.0785c0.0386 0.0191 0.0806 0.0303 0.1236 0.0327l0.02-0.01zm39.74-1.41c0.053 9e-4 0.106-0.0114 0.153-0.0358 0.047-0.0245 0.087-0.0603 0.117-0.1042 0.048-0.0708 0.066-0.1572 0.051-0.2411-0.015-0.0838-0.062-0.1587-0.131-0.2089-0.54-0.37-1.1-0.73-1.65-1.07-0.074-0.0444-0.163-0.0578-0.247-0.0372s-0.157 0.0735-0.203 0.1472c-0.021 0.0361-0.036 0.0761-0.042 0.1178s-4e-3 0.0842 6e-3 0.1251 0.028 0.0793 0.053 0.1132c0.026 0.0338 0.057 0.0623 0.093 0.0839 0.547 0.34 1.087 0.69 1.62 1.05 0.053 0.0378 0.116 0.0587 0.18 0.06zm-28.5-1.45c0.043 0.0102 0.088 0.0102 0.13 0 0.079-0.0351 0.141-0.0998 0.173-0.1802s0.031-0.1701-3e-3 -0.2498c-0.25-0.57-0.54-1.17-0.87-1.77-0.02-0.0378-0.047-0.0713-0.08-0.0984-0.033-0.0272-0.071-0.0474-0.112-0.0595s-0.084-0.0159-0.127-0.0111c-0.042 0.0048-0.083 0.0181-0.121 0.039-0.074 0.0422-0.129 0.1117-0.154 0.1938-0.024 0.0821-0.015 0.1704 0.024 0.2462 0.32 0.58 0.61 1.16 0.85 1.72 0.024 0.0581 0.064 0.108 0.115 0.1435 0.052 0.0356 0.113 0.0552 0.175 0.0565v-0.03zm25.13-0.55c0.06 0.0014 0.118-0.0138 0.169-0.0438 0.052-0.03 0.093-0.0737 0.121-0.1262 0.04-0.0759 0.048-0.1642 0.024-0.2463s-0.079-0.1515-0.154-0.1937c-0.57-0.31-1.16-0.61-1.75-0.9-0.038-0.0186-0.079-0.0296-0.121-0.0321-0.043-0.0026-0.085 0.0033-0.125 0.0173-0.04 0.0139-0.077 0.0357-0.108 0.064-0.032 0.0283-0.058 0.0626-0.076 0.1008-0.018 0.0381-0.029 0.0794-0.032 0.1217-2e-3 0.0423 3e-3 0.0847 0.017 0.1247s0.036 0.0768 0.064 0.1083c0.029 0.0315 0.063 0.0572 0.101 0.0753 0.58 0.28 1.16 0.58 1.72 0.89 0.045 0.0272 0.098 0.0411 0.15 0.04zm-35.08-0.25c0.0478-6e-4 0.095-0.0117 0.1382-0.0324 0.0432-0.0208 0.0813-0.0506 0.1118-0.0876 0.4043-0.4729 0.8605-0.899 1.36-1.27 0.0355-0.0238 0.0657-0.0548 0.0886-0.0909 0.023-0.0361 0.0383-0.0765 0.0448-0.1187 0.0066-0.0423 0.0044-0.0855-0.0066-0.1268-0.0109-0.0414-0.0303-0.0801-0.0568-0.1136-0.0239-0.0355-0.0548-0.0657-0.0909-0.0886-0.0361-0.023-0.0765-0.0382-0.1188-0.0448s-0.0854-0.0043-0.1268 0.0066c-0.0413 0.0109-0.08 0.0302-0.1135 0.0568-0.5442 0.4022-1.0408 0.8652-1.48 1.38-0.057 0.0611-0.0886 0.1415-0.0886 0.225s0.0316 0.164 0.0886 0.225c0.0441 0.0394 0.0978 0.0666 0.1557 0.0788 0.0578 0.0123 0.1179 0.0093 0.1743-0.0088l-0.08 0.01zm31.58-1.45c0.064-3e-3 0.125-0.0231 0.178-0.0584 0.053-0.0352 0.095-0.0841 0.122-0.1416 0.017-0.0387 0.025-0.0803 0.026-0.1224 0-0.0421-8e-3 -0.0838-0.024-0.1228-0.015-0.039-0.039-0.0746-0.068-0.1046-0.03-0.0299-0.065-0.0538-0.104-0.0702-0.61-0.26-1.22-0.5-1.83-0.73-0.081-0.0294-0.17-0.026-0.248 0.0095-0.079 0.0355-0.14 0.1003-0.172 0.1805-0.029 0.0823-0.024 0.1726 0.014 0.2513 0.037 0.0787 0.104 0.1393 0.186 0.1687 0.6 0.22 1.2 0.46 1.79 0.71 0.057 0.0245 0.12 0.0314 0.18 0.02l-0.05 0.01zm-28.49-0.88c0.0455 0.0146 0.0945 0.0146 0.14 0 0.5725-0.2761 1.1601-0.5198 1.76-0.73 0.0402-0.0135 0.0774-0.0348 0.1093-0.0628s0.0579-0.0621 0.0766-0.1003c0.0186-0.0381 0.0294-0.0796 0.0318-0.122s-0.0036-0.0848-0.0177-0.1249c-0.0135-0.0402-0.0349-0.0774-0.0629-0.1093s-0.0621-0.0579-0.1002-0.0766c-0.0382-0.0186-0.0796-0.0294-0.122-0.0318s-0.0849 0.0036-0.1249 0.0177c-0.6272 0.2184-1.2416 0.4721-1.84 0.76-0.0763 0.0405-0.1336 0.1092-0.1598 0.1915-0.0261 0.0822-0.0191 0.1714 0.0197 0.2485 0.0368 0.0537 0.089 0.0948 0.1498 0.1181 0.0607 0.0232 0.1271 0.0274 0.1903 0.0119l-0.05 0.01zm4.9997-0.27c0.061 0.0038 0.121-0.0139 0.17-0.05 0.037-0.0214 0.068-0.0501 0.093-0.0842s0.043-0.073 0.052-0.1142c0.01-0.0412 0.01-0.0839 3e-3 -0.1254-8e-3 -0.0416-0.024-0.0811-0.048-0.1162-0.16-0.26-0.33-0.51-0.5-0.78l0.89-0.18c0.084-0.0146 0.158-0.0618 0.207-0.1312s0.068-0.1552 0.053-0.2388c-7e-3 -0.0423-0.023-0.0828-0.046-0.119s-0.053-0.0674-0.089-0.0916c-0.035-0.0243-0.075-0.0412-0.117-0.0496-0.042-0.0085-0.086-0.0084-0.128 2e-4 -0.39 0.07-0.78 0.15-1.16 0.24l-0.2-0.28c-0.024-0.0351-0.055-0.0651-0.09-0.0882-0.036-0.0231-0.076-0.0388-0.118-0.0463-0.042-0.0074-0.085-0.0065-0.126 0.0029-0.042 0.0094-0.081 0.0269-0.116 0.0516-0.035 0.0241-0.065 0.0548-0.088 0.0906-0.023 0.0357-0.039 0.0757-0.046 0.1176-8e-3 0.0419-7e-3 0.0849 3e-3 0.1264 9e-3 0.0415 0.027 0.0808 0.051 0.1154l0.05 0.07h-0.08c-0.083 0.0235-0.155 0.078-0.199 0.1524-0.045 0.0743-0.059 0.1629-0.041 0.2476 0.026 0.0816 0.081 0.1506 0.155 0.1933 0.074 0.0426 0.162 0.0557 0.245 0.0367l0.31-0.07c0.23 0.32 0.44 0.65 0.64 1 0.032 0.0376 0.072 0.0672 0.117 0.0863 0.045 0.0192 0.094 0.0273 0.143 0.0237l0.01 0.01zm19.86-0.21c0.069 3e-3 0.137-0.017 0.193-0.0569 0.056-0.0398 0.097-0.0972 0.117-0.1631 0.026-0.0822 0.018-0.1711-0.021-0.2477-0.04-0.0766-0.107-0.1348-0.189-0.1623-0.62-0.19-1.26-0.38-1.89-0.54-0.04-0.012-0.083-0.0154-0.125-0.0102s-0.083 0.0191-0.12 0.0406c-0.036 0.0216-0.068 0.0504-0.093 0.0848-0.025 0.0343-0.042 0.0734-0.052 0.1148-0.01 0.0407-0.013 0.0831-7e-3 0.1248 6e-3 0.0416 0.02 0.0817 0.041 0.1179 0.022 0.0362 0.05 0.0679 0.084 0.0931 0.033 0.0253 0.072 0.0438 0.112 0.0542 0.62 0.16 1.24 0.35 1.86 0.54l0.09 0.01zm-3.76-1c0.075 1e-3 0.147-0.0247 0.204-0.0724 0.056-0.0477 0.094-0.1143 0.106-0.1876 9e-3 -0.0414 0.01-0.0841 2e-3 -0.1256-8e-3 -0.0416-0.024-0.0812-0.047-0.1165-0.024-0.0354-0.054-0.0657-0.089-0.0894-0.035-0.0236-0.074-0.0401-0.116-0.0485-0.64-0.14-1.29-0.26-1.93-0.36-0.083-0.0145-0.169 0.0047-0.239 0.0535-0.069 0.0487-0.116 0.123-0.131 0.2065-8e-3 0.0423-8e-3 0.0858 1e-3 0.1279 9e-3 0.0422 0.027 0.0819 0.053 0.1167 0.025 0.0348 0.057 0.064 0.095 0.0856 0.037 0.0215 0.078 0.0351 0.121 0.0398 0.63 0.11 1.27 0.23 1.9 0.36l0.07 0.01zm-13.57-0.55c0.63-0.09 1.28-0.16 1.92-0.21 0.086-0.0076 0.165-0.0485 0.221-0.1139 0.057-0.0654 0.085-0.1501 0.079-0.2361-3e-3 -0.0421-0.016-0.083-0.035-0.1204-0.02-0.0374-0.047-0.0705-0.079-0.0975-0.033-0.027-0.07-0.0472-0.111-0.0596-0.04-0.0123-0.083-0.0166-0.125-0.0125-0.65 0-1.31 0.12-2 0.21-0.042 0.0049-0.082 0.0182-0.118 0.0392-0.037 0.0209-0.069 0.0491-0.094 0.0828s-0.044 0.0721-0.053 0.1131c-0.01 0.0409-0.012 0.0834-5e-3 0.1249 4e-3 0.0486 0.019 0.0956 0.043 0.1377 0.025 0.042 0.058 0.0779 0.099 0.1049 0.04 0.027 0.087 0.0444 0.135 0.0509s0.097 0.0019 0.143-0.0135h-0.02zm9.72-0.08c0.08 4e-4 0.157-0.0292 0.217-0.0829 0.059-0.0536 0.096-0.1275 0.103-0.2071 9e-3 -0.0834-0.016-0.1667-0.068-0.2322-0.053-0.0654-0.129-0.1077-0.212-0.1178-0.65-0.08-1.31-0.14-2-0.18-0.042-0.0027-0.084 0.0029-0.124 0.0166-0.04 0.0136-0.076 0.035-0.108 0.0628-0.032 0.0279-0.057 0.0617-0.076 0.0996-0.018 0.0378-0.029 0.079-0.032 0.121-4e-3 0.0424 1e-3 0.0851 0.014 0.1256 0.013 0.0404 0.034 0.0777 0.062 0.1096s0.063 0.0577 0.101 0.0757c0.039 0.018 0.081 0.028 0.123 0.0291 0.64 0.05 1.29 0.1 1.92 0.18h0.08zm-5.84-0.24h1.94c0.042 0.0014 0.083-0.0056 0.122-0.0206s0.074-0.0376 0.104-0.0666c0.03-0.0289 0.054-0.0635 0.07-0.1018s0.024-0.0794 0.024-0.121c2e-3 -0.042-5e-3 -0.0839-0.02-0.1232-0.015-0.0394-0.038-0.0754-0.066-0.106-0.029-0.0307-0.064-0.0554-0.102-0.0726-0.038-0.0173-0.08-0.0269-0.122-0.0282h-2c-0.043 0.0013-0.085 0.0112-0.124 0.0291s-0.074 0.0435-0.103 0.0752-0.051 0.0689-0.065 0.1094-0.02 0.0835-0.018 0.1263c2e-3 0.0459 0.014 0.0908 0.035 0.1317s0.051 0.0768 0.087 0.1052c0.036 0.0285 0.077 0.0489 0.122 0.0598 0.045 0.0108 0.091 0.012 0.136 0.0033h-0.02zm-8.6497-1.11c0.0728 9e-4 0.1436-0.0239 0.1997-0.07 0.059-0.0599 0.093-0.1407 0.093-0.225 0-0.0842-0.034-0.1651-0.093-0.225-0.3998-0.52-0.8197-1-1.2397-1.53-0.0599-0.0592-0.1408-0.0924-0.225-0.0924-0.0843 0-0.1651 0.0332-0.225 0.0924-0.0599 0.0616-0.0934 0.1442-0.0934 0.23 0 0.0859 0.0335 0.1684 0.0934 0.23 0.41 0.48 0.83 1 1.22 1.49 0.0316 0.0469 0.0751 0.0846 0.1261 0.1092 0.0509 0.0246 0.1075 0.0352 0.1639 0.0308l-0.02-0.04zm-2.54-3c0.0407 2e-4 0.0812-0.0076 0.119-0.023 0.0377-0.0155 0.072-0.0382 0.101-0.067 0.0306-0.0289 0.0549-0.0638 0.0715-0.1025 0.0167-0.0387 0.0252-0.0804 0.0252-0.1225s-0.0085-0.0837-0.0252-0.1224c-0.0166-0.0387-0.0409-0.0736-0.0715-0.1026-0.45-0.48-0.92-0.93996-1.4-1.38-0.029-0.03056-0.0639-0.0549-0.1026-0.07153-0.0387-0.01664-0.0803-0.02524-0.1224-0.02524s-0.0838 0.0086-0.1225 0.02524c-0.0387 0.01663-0.0736 0.04097-0.1025 0.07153-0.0309 0.02984-0.0554 0.06556-0.0721 0.10507-0.0168 0.03951-0.0254 0.08199-0.0254 0.12491s0.0086 0.0854 0.0254 0.12491c0.0167 0.03951 0.0412 0.07526 0.0721 0.1051 0.47 0.42997 0.93 0.88997 1.38 1.35 0.0263 0.0479 0.0656 0.0874 0.1134 0.114 0.0477 0.0265 0.102 0.039 0.1566 0.036l-0.02-0.04zm-2.85-2.65c0.0945-0.0024 0.1843-0.0419 0.25-0.10999 0.0598-0.06159 0.0933-0.14411 0.0933-0.23001 0-0.08589-0.0335-0.16841-0.0933-0.23001-0.51-0.42-1-0.81998-1.56-1.2-0.0347-0.02471-0.0739-0.04227-0.1154-0.05164-0.0416-0.00936-0.0845-0.01034-0.1264-0.0029-0.0419 0.00745-0.0819 0.0232-0.1177 0.0463-0.0357 0.0231-0.0665 0.05308-0.0905 0.08823-0.0252 0.03404-0.0434 0.07275-0.0536 0.11389-0.0101 0.04113-0.012 0.08387-0.0054 0.12573 0.0065 0.04186 0.0212 0.08202 0.0433 0.11813 0.0222 0.03612 0.0513 0.06748 0.0857 0.09226 0.52 0.37333 1.0299 0.76331 1.5299 1.17 0.0453 0.05658 0.1091 0.09552 0.1801 0.11002l-0.02-0.04001zm-3.17-2.26c0.054-1.9e-4 0.1071-0.01403 0.1543-0.04025 0.0472-0.02623 0.087-0.06399 0.1157-0.10974 0.0453-0.07323 0.0603-0.16129 0.0416-0.24537s-0.0695-0.15749-0.1416-0.20462c-0.56-0.34-1.14-0.67-1.72-1-0.0771-0.03884-0.1663-0.04594-0.2486-0.01977-0.0822 0.02617-0.151 0.08351-0.1915 0.15976-0.0383 0.0756-0.0451 0.16333-0.0189 0.24396 0.0263 0.08062 0.0834 0.14753 0.159 0.18603 0.57 0.3 1.13 0.62 1.68 1 0.0253 0.02378 0.0553 0.04224 0.0879 0.05426s0.0673 0.01738 0.1021 0.01575l-0.02-0.04001zm-3.46-1.8c0.0632 0.00149 0.1254-0.01575 0.1788-0.04956 0.0533-0.03381 0.0955-0.08269 0.1212-0.14044 0.0164-0.03873 0.0251-0.08032 0.0255-0.12241 3e-4 -0.04208-0.0076-0.08385-0.0234-0.12286-0.0158-0.03902-0.0391-0.07454-0.0687-0.10452-0.0295-0.02999-0.0646-0.05382-0.1034-0.07019-0.6-0.26-1.22-0.50001-1.84-0.72001-0.0401-0.01414-0.0825-0.02018-0.1249-0.01776-0.0423 0.00243-0.0839 0.01325-0.122 0.03186-0.0382 0.01862-0.0722 0.04463-0.1002 0.07654s-0.0494 0.06909-0.0629 0.10935c-0.0142 0.04003-0.0202 0.08249-0.0178 0.12487 0.0025 0.04239 0.0133 0.08385 0.0319 0.12201s0.0446 0.07225 0.0765 0.10025c0.0319 0.02801 0.0691 0.04937 0.1094 0.06287 0.6 0.21 1.21 0.45001 1.79 0.70001 0.044 0.0325 0.0957 0.05316 0.15 0.06l-0.02-0.04001zm-24.9-0.79999h0.07l1.9-0.40002c0.0424-0.00718 0.0828-0.0228 0.119-0.04596s0.0674-0.05337 0.0916-0.08884c0.0243-0.03546 0.0412-0.07546 0.0496-0.11758 0.0085-0.04213 0.0085-0.08551-2e-4 -0.1276-0.0192-0.08246-0.0693-0.15439-0.1401-0.20092-0.0707-0.04653-0.1566-0.0641-0.2399-0.04908-0.64 0.12-1.28 0.26-1.92 0.4-0.0824 0.01918-0.1544 0.06932-0.2009 0.14004-0.0465 0.07073-0.0641 0.15665-0.0491 0.23996 0.0121 0.08126 0.0532 0.15537 0.1157 0.20868s0.1421 0.08219 0.2243 0.0813l-0.02-0.03998zm21.22-0.48001c0.0727 0.0023 0.1439-0.02022 0.2021-0.06384 0.0581-0.04362 0.0998-0.10574 0.1179-0.17615 0.0105-0.04071 0.0129-0.08312 7e-3 -0.12475-0.0059-0.04164-0.0198-0.0817-0.0412-0.11792-0.0213-0.03622-0.0496-0.06789-0.0832-0.09317s-0.0719-0.04369-0.1126-0.05417c-0.63-0.17-1.27-0.32999-1.92-0.45999-0.0848-0.01473-0.1719 0.0042-0.2428 0.05276-0.071 0.04856-0.1203 0.12294-0.1372 0.20725-0.0151 0.08331 0.0025 0.1692 0.049 0.23993 0.0466 0.07072 0.1185 0.12086 0.201 0.14004 0.64 0.12 1.27 0.27 1.88 0.44l0.08 0.01001zm-17.4-0.28h0.06c0.6666-0.11333 1.3067-0.21332 1.92-0.29998 0.0842-0.01474 0.1592-0.06155 0.2096-0.13056 0.0504-0.069 0.072-0.15484 0.0604-0.23947-0.0049-0.04183-0.0181-0.08223-0.0391-0.11874-0.021-0.03652-0.0492-0.0684-0.0829-0.09366-0.0337-0.02527-0.0722-0.04338-0.1131-0.05329-0.0409-0.0099-0.0834-0.01137-0.1249-0.0043-0.65 0.09-1.29 0.18999-1.94 0.29999-0.0835 0.01464-0.1578 0.06185-0.2066 0.13122-0.0487 0.06938-0.068 0.15527-0.0534 0.2388-1e-4 0.04245 0.0085 0.08444 0.0254 0.12342 0.0168 0.03897 0.0414 0.07408 0.0723 0.10315 0.031 0.02906 0.0676 0.05148 0.1075 0.06582 0.04 0.01435 0.0824 0.02035 0.1248 0.01761l-0.02-0.04001zm13.59-0.48999c0.0778-0.00146 0.1526-0.03037 0.2111-0.0816 0.0586-0.05123 0.0971-0.12149 0.1089-0.1984 0.0056-0.04207 0.0027-0.08485-0.0084-0.12582s-0.0302-0.07932-0.0562-0.11282c-0.0261-0.03351-0.0586-0.0615-0.0956-0.08234-0.0369-0.02084-0.0777-0.0341-0.1198-0.03903-0.64-0.09-1.3-0.15999-2-0.20999-0.0416-0.00412-0.0834 1.8e-4 -0.1233 0.01266-0.0398 0.01248-0.0767 0.03289-0.1084 0.05997-0.0318 0.02708-0.0578 0.06027-0.0764 0.09762-0.0186 0.03736-0.0294 0.0781-0.0319 0.11976-0.0041 0.04205 1e-4 0.0845 0.0125 0.1249 0.0123 0.04041 0.0326 0.07797 0.0595 0.11051 0.027 0.03254 0.0602 0.05944 0.0976 0.0791s0.0783 0.0317 0.1204 0.03546c0.65 0.05 1.3 0.12002 1.92 0.21002h0.09zm-9.73-0.05001c0.64-0.07 1.29-0.11999 1.93-0.16999 0.0421-0.00254 0.0832-0.01338 0.121-0.03186 0.0379-0.01848 0.0717-0.04424 0.0996-0.07583s0.0492-0.06839 0.0629-0.10825c0.0136-0.03986 0.0192-0.08201 0.0165-0.12405-0.0025-0.04297-0.0136-0.08501-0.0327-0.12357s-0.0458-0.07285-0.0785-0.10086-0.0707-0.04915-0.1117-0.06213c-0.041-0.01299-0.0843-0.01757-0.1271-0.01346-0.65 0-1.3 0.10001-2 0.17001-0.0421 0.00376-0.0831 0.0158-0.1205 0.03546-0.0374 0.01967-0.0705 0.04656-0.0974 0.0791-0.027 0.03254-0.0472 0.0701-0.0596 0.11051s-0.0167 0.08285-0.0125 0.12491c-0.0051 0.05392 0.0036 0.10827 0.0252 0.15793 0.0217 0.04965 0.0556 0.093 0.0986 0.12597 0.0429 0.03298 0.0936 0.0545 0.1471 0.06256 0.0536 0.00807 0.1083 0.00241 0.1591-0.01645l-0.02-0.04zm5.84-0.25998c0.0841 1.5e-4 0.1652-0.03189 0.2265-0.08951 0.0614-0.05763 0.0984-0.13651 0.1035-0.22052 0.0013-0.04286-6e-3 -0.08554-0.0214-0.12552-0.0155-0.03999-0.0389-0.07646-0.0688-0.10724-0.0298-0.03078-0.0655-0.05526-0.105-0.07196s-0.0819-0.02529-0.1248-0.02527h-2c-0.0429-2e-5 -0.0853 0.00857-0.1248 0.02527s-0.0753 0.04118-0.1051 0.07196c-0.0299 0.03078-0.0532 0.06725-0.0687 0.10724-0.0155 0.03998-0.0228 0.08266-0.0214 0.12552 0.0026 0.08312 0.0374 0.16198 0.0971 0.21985 0.0598 0.05786 0.1397 0.09022 0.2229 0.09018h1.99z" fill="#999"/>
<path d="m26.454 76.13-2.8199 1.22-11.27-7.86-3 1.66c-2.41 1.44-4.75 1.54-5.87 0.9l-0.23004 0.11c-1.74 0.76-2.77 0.08-3.12-0.74s-0.14997-2 1.59-2.78l0.22998-0.1c0.21-1 1.12-2.68 4.67-3.67l3.27-1.05 2-13.59 2.82-1.23 2.19 12.59 8.06-2.76 1.22-3.23 2.24-0.83 0.16 3 0.7999-0.07 0.7301 1.67-0.6001 0.59 2.12 2.2-2.1399 1.07-3.18-1.32-7.53 4 7.6599 10.22zm-0.2099-14.95 3.2 1.33 1-0.52-1.94-2 0.73-0.74-0.3401-0.79-1 0.09-0.1499-2.8-1.09 0.4-1.22 3.24-9.12 3.11-2.1701-12.51-1.69 0.73-1.9499 13.64-3.69 1.18c-3.44 0.95-4.12 2.49-4.22 3.32v0.21l-0.20002 0.07c-0.12705 0.0362-0.25081 0.083-0.36999 0.14-1.07 0.46-1.55 1.19-1.24 1.89 0.31 0.7 1.16 0.86 2.23 0.39 0.1204-0.0486 0.23738-0.1054 0.35003-0.17l0.19001-0.11 0.17999 0.13c0.73 0.54 2.86 0.64 5.32-0.82l3.36-1.88 11.3 7.89 1.69-0.73-7.66-10.14 8.5-4.55z" fill="#999"/>
</svg>
